<?xml version="1.0" encoding="UTF-8" standalone="no"?>
<!-- Created with Inkscape (http://www.inkscape.org/) -->

<svg
   xmlns:dc="http://purl.org/dc/elements/1.1/"
   xmlns:cc="http://creativecommons.org/ns#"
   xmlns:rdf="http://www.w3.org/1999/02/22-rdf-syntax-ns#"
   xmlns:svg="http://www.w3.org/2000/svg"
   xmlns="http://www.w3.org/2000/svg"
   xmlns:sodipodi="http://sodipodi.sourceforge.net/DTD/sodipodi-0.dtd"
   xmlns:inkscape="http://www.inkscape.org/namespaces/inkscape"
   width="65"
   height="25"
   id="svg2"
   version="1.1"
   inkscape:version="0.48.5 r10040"
   sodipodi:docname="car.svg"
   inkscape:export-filename="C:\Users\Nick\Desktop\HTML5 Games\Finish Line\img\car.png"
   inkscape:export-xdpi="90"
   inkscape:export-ydpi="90">
  <defs
     id="defs4" />
  <sodipodi:namedview
     id="base"
     pagecolor="#ffffff"
     bordercolor="#666666"
     borderopacity="1.0"
     inkscape:pageopacity="0.0"
     inkscape:pageshadow="2"
     inkscape:zoom="1"
     inkscape:cx="46.916018"
     inkscape:cy="-31.203268"
     inkscape:document-units="px"
     inkscape:current-layer="layer1"
     showgrid="false"
     inkscape:window-width="1920"
     inkscape:window-height="1018"
     inkscape:window-x="-8"
     inkscape:window-y="-8"
     inkscape:window-maximized="1" />
  <metadata
     id="metadata7">
    <rdf:RDF>
      <cc:Work
         rdf:about="">
        <dc:format>image/svg+xml</dc:format>
        <dc:type
           rdf:resource="http://purl.org/dc/dcmitype/StillImage" />
        <dc:title></dc:title>
      </cc:Work>
    </rdf:RDF>
  </metadata>
  <g
     inkscape:label="Layer 1"
     inkscape:groupmode="layer"
     id="layer1"
     transform="translate(0,-1027.3622)">
    <path
       sodipodi:type="arc"
       style="fill:#800000;fill-opacity:1;fill-rule:nonzero;stroke:#000000;stroke-width:0.63541669000000001;stroke-linejoin:miter;stroke-miterlimit:4;stroke-opacity:1;stroke-dasharray:none;stroke-dashoffset:0"
       id="path3055"
       sodipodi:cx="15.25"
       sodipodi:cy="11.25"
       sodipodi:rx="7.625"
       sodipodi:ry="7.625"
       d="m 22.875,11.25 a 7.625,7.625 0 1 1 -15.25,0 7.625,7.625 0 1 1 15.25,0 z"
       transform="matrix(1.5737705,0,0,1.5737705,8.5,1022.1573)" />
    <path
       style="fill:#ff0000;fill-opacity:1;fill-rule:nonzero;stroke:#000000;stroke-width:1;stroke-linejoin:miter;stroke-miterlimit:4;stroke-opacity:1;stroke-dasharray:none;stroke-dashoffset:0"
       d="m 8.5,0.5 -2,2 -6,2 0,16 6,2 2,2 5,0 2,-2 8.03125,0 c 10.274811,-6.12082 7.892722,-5.564877 17.9375,0 l 8.03125,0 2,2 5,0 2,-2 4,-2 c 2.702847,-4.681468 2.620175,-11.4617232 0,-16 l -4,-2 -2,-2 -5,0 -2,2 -8.03125,0 c -10.274811,6.1208199 -7.892722,5.564877 -17.9375,0 l -8.03125,0 -2,-2 z"
       transform="translate(0,1027.3622)"
       id="rect2985"
       inkscape:connector-curvature="0"
       sodipodi:nodetypes="ccccccccccccccccccccccccc" />
    <path
       style="fill:#00ffff;fill-opacity:1;fill-rule:nonzero;stroke:#000000;stroke-width:1;stroke-linejoin:miter;stroke-miterlimit:4;stroke-opacity:1;stroke-dashoffset:0"
       d="m 56.5,1031.4872 4,2 c 2.034279,3.5235 1.999887,9.2861 0,12.75 l -4,2 c -0.740411,-5.8766 -0.673139,-10.6378 0,-16.75 z"
       id="rect3120"
       inkscape:connector-curvature="0"
       sodipodi:nodetypes="ccccc" />
  </g>
</svg>
