<?xml version="1.0" encoding="UTF-8" standalone="no"?>
<!-- Created with Inkscape (http://www.inkscape.org/) -->

<svg
   xmlns:dc="http://purl.org/dc/elements/1.1/"
   xmlns:cc="http://creativecommons.org/ns#"
   xmlns:rdf="http://www.w3.org/1999/02/22-rdf-syntax-ns#"
   xmlns:svg="http://www.w3.org/2000/svg"
   xmlns="http://www.w3.org/2000/svg"
   xmlns:sodipodi="http://sodipodi.sourceforge.net/DTD/sodipodi-0.dtd"
   xmlns:inkscape="http://www.inkscape.org/namespaces/inkscape"
   width="1220"
   height="620"
   id="svg2"
   version="1.1"
   inkscape:version="0.48.5 r10040"
   sodipodi:docname="map08.svg"
   inkscape:export-filename="C:\Users\Nick\Desktop\HTML5 Games\Finish Line\img\map08.png"
   inkscape:export-xdpi="90"
   inkscape:export-ydpi="90">
  <defs
     id="defs4" />
  <sodipodi:namedview
     id="base"
     pagecolor="#ffffff"
     bordercolor="#666666"
     borderopacity="1.0"
     inkscape:pageopacity="0.0"
     inkscape:pageshadow="2"
     inkscape:zoom="1"
     inkscape:cx="576.45242"
     inkscape:cy="359.992"
     inkscape:document-units="px"
     inkscape:current-layer="layer2"
     showgrid="false"
     inkscape:window-width="1920"
     inkscape:window-height="1018"
     inkscape:window-x="-8"
     inkscape:window-y="-8"
     inkscape:window-maximized="1"
     showguides="true"
     inkscape:guide-bbox="true" />
  <metadata
     id="metadata7">
    <rdf:RDF>
      <cc:Work
         rdf:about="">
        <dc:format>image/svg+xml</dc:format>
        <dc:type
           rdf:resource="http://purl.org/dc/dcmitype/StillImage" />
        <dc:title></dc:title>
      </cc:Work>
    </rdf:RDF>
  </metadata>
  <g
     inkscape:label="Layer 1"
     inkscape:groupmode="layer"
     id="layer1"
     transform="translate(0,-432.36218)"
     style="display:inline"
     sodipodi:insensitive="true">
    <rect
       style="fill:#784421;fill-opacity:1;fill-rule:nonzero;stroke:none"
       id="rect2985"
       width="1220"
       height="620"
       x="0"
       y="432.36218" />
    <rect
       style="fill:#f2f2f2;fill-opacity:1;fill-rule:nonzero;stroke:none"
       id="rect2987"
       width="1200"
       height="510"
       x="10"
       y="542.36218"
       rx="100"
       ry="100" />
    <path
       sodipodi:type="arc"
       style="fill:none;stroke:#0066ff;stroke-width:3.25714302;stroke-miterlimit:4;stroke-dasharray:none"
       id="path3908"
       sodipodi:cx="625"
       sodipodi:cy="334"
       sodipodi:rx="57"
       sodipodi:ry="57"
       d="m 682,334 a 57,57 0 1 1 -114,0 57,57 0 1 1 114,0 z"
       transform="matrix(1.5350877,0,0,1.5350877,-349.42982,284.64289)" />
    <path
       style="fill:none;stroke:#ff0000;stroke-width:5;stroke-linecap:butt;stroke-linejoin:miter;stroke-miterlimit:4;stroke-opacity:1;stroke-dasharray:none"
       d="m 76.5,542.76697 0,509.19043"
       id="path2989"
       inkscape:connector-curvature="0" />
    <rect
       style="fill:#ff0000;fill-opacity:1;fill-rule:nonzero;stroke:none"
       id="rect3778"
       width="8"
       height="510"
       x="606"
       y="542.36218" />
    <rect
       style="fill:#f2f2f2;fill-opacity:1;fill-rule:nonzero;stroke:none"
       id="rect3778-7"
       width="8"
       height="20"
       x="606"
       y="1007.3622" />
    <rect
       style="fill:#f2f2f2;fill-opacity:1;fill-rule:nonzero;stroke:none"
       id="rect3778-7-4"
       width="8"
       height="20"
       x="606"
       y="967.36218" />
    <rect
       style="fill:#f2f2f2;fill-opacity:1;fill-rule:nonzero;stroke:none"
       id="rect3778-7-0"
       width="8"
       height="20"
       x="606"
       y="927.36218" />
    <rect
       style="fill:#f2f2f2;fill-opacity:1;fill-rule:nonzero;stroke:none"
       id="rect3778-7-9"
       width="8"
       height="20"
       x="606"
       y="887.36218" />
    <rect
       style="fill:#f2f2f2;fill-opacity:1;fill-rule:nonzero;stroke:none"
       id="rect3778-7-9-4"
       width="8"
       height="20"
       x="606"
       y="847.36218" />
    <rect
       style="fill:#f2f2f2;fill-opacity:1;fill-rule:nonzero;stroke:none"
       id="rect3778-7-9-8"
       width="8"
       height="20"
       x="606"
       y="807.36218" />
    <rect
       style="fill:#f2f2f2;fill-opacity:1;fill-rule:nonzero;stroke:none"
       id="rect3778-7-9-82"
       width="8"
       height="20"
       x="606"
       y="767.36218" />
    <rect
       style="fill:#f2f2f2;fill-opacity:1;fill-rule:nonzero;stroke:none"
       id="rect3778-7-9-45"
       width="8"
       height="20"
       x="606"
       y="727.36218" />
    <rect
       style="fill:#f2f2f2;fill-opacity:1;fill-rule:nonzero;stroke:none"
       id="rect3778-7-9-45-5"
       width="8"
       height="20"
       x="606"
       y="687.36218" />
    <rect
       style="fill:#f2f2f2;fill-opacity:1;fill-rule:nonzero;stroke:none"
       id="rect3778-7-9-45-1"
       width="8"
       height="20"
       x="606"
       y="647.36218" />
    <rect
       style="fill:#f2f2f2;fill-opacity:1;fill-rule:nonzero;stroke:none"
       id="rect3778-7-9-45-7"
       width="8"
       height="20"
       x="606"
       y="607.36218" />
    <rect
       style="fill:#f2f2f2;fill-opacity:1;fill-rule:nonzero;stroke:none"
       id="rect3778-7-9-45-11"
       width="8"
       height="20"
       x="606"
       y="567.36218" />
    <path
       style="fill:none;stroke:#0066ff;stroke-width:5;stroke-linecap:butt;stroke-linejoin:miter;stroke-miterlimit:4;stroke-opacity:1;stroke-dasharray:none"
       d="m 460.5,542.76697 0,509.19043"
       id="path2989-5"
       inkscape:connector-curvature="0" />
    <path
       style="fill:none;stroke:#0066ff;stroke-width:5;stroke-linecap:butt;stroke-linejoin:miter;stroke-miterlimit:4;stroke-opacity:1;stroke-dasharray:none"
       d="m 760.5,542.76697 0,509.19043"
       id="path2989-5-2"
       inkscape:connector-curvature="0" />
    <path
       style="fill:none;stroke:#ff0000;stroke-width:5;stroke-linecap:butt;stroke-linejoin:miter;stroke-miterlimit:4;stroke-opacity:1;stroke-dasharray:none"
       d="m 1144.5,542.76697 0,509.19043"
       id="path2989-7"
       inkscape:connector-curvature="0" />
    <path
       sodipodi:type="arc"
       style="fill:none;stroke:#ff0000;stroke-width:3.25714302;stroke-miterlimit:4;stroke-dasharray:none"
       id="path3908-1"
       sodipodi:cx="625"
       sodipodi:cy="334"
       sodipodi:rx="57"
       sodipodi:ry="57"
       d="m 682,334 a 57,57 0 1 1 -114,0 57,57 0 1 1 114,0 z"
       transform="matrix(1.5350877,0,0,1.5350877,66.57019,404.64289)" />
    <path
       sodipodi:type="arc"
       style="fill:none;stroke:#ff0000;stroke-width:3.25714302;stroke-miterlimit:4;stroke-dasharray:none"
       id="path3908-1-4"
       sodipodi:cx="625"
       sodipodi:cy="334"
       sodipodi:rx="57"
       sodipodi:ry="57"
       d="m 682,334 a 57,57 0 1 1 -114,0 57,57 0 1 1 114,0 z"
       transform="matrix(1.5350877,0,0,1.5350877,66.570186,164.64289)" />
    <path
       sodipodi:type="arc"
       style="fill:none;stroke:#ff0000;stroke-width:3.25714302;stroke-miterlimit:4;stroke-dasharray:none"
       id="path3908-1-2"
       sodipodi:cx="625"
       sodipodi:cy="334"
       sodipodi:rx="57"
       sodipodi:ry="57"
       d="m 682,334 a 57,57 0 1 1 -114,0 57,57 0 1 1 114,0 z"
       transform="matrix(1.5350877,0,0,1.5350877,-765.42981,404.64289)" />
    <path
       sodipodi:type="arc"
       style="fill:none;stroke:#ff0000;stroke-width:3.25714302;stroke-miterlimit:4;stroke-dasharray:none"
       id="path3908-1-2-3"
       sodipodi:cx="625"
       sodipodi:cy="334"
       sodipodi:rx="57"
       sodipodi:ry="57"
       d="m 682,334 a 57,57 0 1 1 -114,0 57,57 0 1 1 114,0 z"
       transform="matrix(1.5350877,0,0,1.5350877,-765.42981,164.64289)" />
    <path
       sodipodi:type="arc"
       style="fill:#ff0000;stroke:none"
       id="path3908-1-22"
       sodipodi:cx="625"
       sodipodi:cy="334"
       sodipodi:rx="57"
       sodipodi:ry="57"
       d="m 682,334 a 57,57 0 1 1 -114,0 57,57 0 1 1 114,0 z"
       transform="matrix(0.0877193,0,0,0.0877193,971.17544,888.06393)" />
    <path
       sodipodi:type="arc"
       style="fill:#ff0000;stroke:none"
       id="path3908-1-22-1"
       sodipodi:cx="625"
       sodipodi:cy="334"
       sodipodi:rx="57"
       sodipodi:ry="57"
       d="m 682,334 a 57,57 0 1 1 -114,0 57,57 0 1 1 114,0 z"
       transform="matrix(0.0877193,0,0,0.0877193,971.17544,648.06393)" />
    <path
       sodipodi:type="arc"
       style="fill:#ff0000;stroke:none"
       id="path3908-1-22-6"
       sodipodi:cx="625"
       sodipodi:cy="334"
       sodipodi:rx="57"
       sodipodi:ry="57"
       d="m 682,334 a 57,57 0 1 1 -114,0 57,57 0 1 1 114,0 z"
       transform="matrix(0.0877193,0,0,0.0877193,139.17544,888.06393)" />
    <path
       sodipodi:type="arc"
       style="fill:#ff0000;stroke:none"
       id="path3908-1-22-1-8"
       sodipodi:cx="625"
       sodipodi:cy="334"
       sodipodi:rx="57"
       sodipodi:ry="57"
       d="m 682,334 a 57,57 0 1 1 -114,0 57,57 0 1 1 114,0 z"
       transform="matrix(0.0877193,0,0,0.0877193,139.17544,648.06393)" />
    <path
       style="fill:none;stroke:#ff0000;stroke-width:5;stroke-linecap:butt;stroke-linejoin:miter;stroke-miterlimit:4;stroke-opacity:1;stroke-dasharray:none"
       d="m 1038.5,937.86218 0,-14 22,0"
       id="path4102"
       inkscape:connector-curvature="0"
       sodipodi:nodetypes="ccc" />
    <path
       style="fill:none;stroke:#ff0000;stroke-width:5;stroke-linecap:butt;stroke-linejoin:miter;stroke-miterlimit:4;stroke-opacity:1;stroke-dasharray:none"
       d="m 1013.5,937.86218 0,-14 -22,0"
       id="path4102-5"
       inkscape:connector-curvature="0"
       sodipodi:nodetypes="ccc" />
    <path
       style="fill:none;stroke:#ff0000;stroke-width:5;stroke-linecap:butt;stroke-linejoin:miter;stroke-miterlimit:4;stroke-opacity:1;stroke-dasharray:none"
       d="m 1038.5,896.86218 0,14 22,0"
       id="path4102-7"
       inkscape:connector-curvature="0"
       sodipodi:nodetypes="ccc" />
    <path
       style="fill:none;stroke:#ff0000;stroke-width:5;stroke-linecap:butt;stroke-linejoin:miter;stroke-miterlimit:4;stroke-opacity:1;stroke-dasharray:none"
       d="m 1013.5,896.86218 0,14 -22,0"
       id="path4102-5-6"
       inkscape:connector-curvature="0"
       sodipodi:nodetypes="ccc" />
    <path
       style="fill:none;stroke:#ff0000;stroke-width:5;stroke-linecap:butt;stroke-linejoin:miter;stroke-miterlimit:4;stroke-opacity:1;stroke-dasharray:none"
       d="m 1038.5,697.86218 0,-14 22,0"
       id="path4102-1"
       inkscape:connector-curvature="0"
       sodipodi:nodetypes="ccc" />
    <path
       style="fill:none;stroke:#ff0000;stroke-width:5;stroke-linecap:butt;stroke-linejoin:miter;stroke-miterlimit:4;stroke-opacity:1;stroke-dasharray:none"
       d="m 1013.5,697.86218 0,-14 -22,0"
       id="path4102-5-8"
       inkscape:connector-curvature="0"
       sodipodi:nodetypes="ccc" />
    <path
       style="fill:none;stroke:#ff0000;stroke-width:5;stroke-linecap:butt;stroke-linejoin:miter;stroke-miterlimit:4;stroke-opacity:1;stroke-dasharray:none"
       d="m 1038.5,656.86218 0,14 22,0"
       id="path4102-7-9"
       inkscape:connector-curvature="0"
       sodipodi:nodetypes="ccc" />
    <path
       style="fill:none;stroke:#ff0000;stroke-width:5;stroke-linecap:butt;stroke-linejoin:miter;stroke-miterlimit:4;stroke-opacity:1;stroke-dasharray:none"
       d="m 1013.5,656.86218 0,14 -22,0"
       id="path4102-5-6-2"
       inkscape:connector-curvature="0"
       sodipodi:nodetypes="ccc" />
    <path
       style="fill:none;stroke:#ff0000;stroke-width:5;stroke-linecap:butt;stroke-linejoin:miter;stroke-miterlimit:4;stroke-opacity:1;stroke-dasharray:none"
       d="m 206.5,937.86218 0,-14 22,0"
       id="path4102-79"
       inkscape:connector-curvature="0"
       sodipodi:nodetypes="ccc" />
    <path
       style="fill:none;stroke:#ff0000;stroke-width:5;stroke-linecap:butt;stroke-linejoin:miter;stroke-miterlimit:4;stroke-opacity:1;stroke-dasharray:none"
       d="m 181.5,937.86218 0,-14 -22,0"
       id="path4102-5-5"
       inkscape:connector-curvature="0"
       sodipodi:nodetypes="ccc" />
    <path
       style="fill:none;stroke:#ff0000;stroke-width:5;stroke-linecap:butt;stroke-linejoin:miter;stroke-miterlimit:4;stroke-opacity:1;stroke-dasharray:none"
       d="m 206.5,896.86218 0,14 22,0"
       id="path4102-7-4"
       inkscape:connector-curvature="0"
       sodipodi:nodetypes="ccc" />
    <path
       style="fill:none;stroke:#ff0000;stroke-width:5;stroke-linecap:butt;stroke-linejoin:miter;stroke-miterlimit:4;stroke-opacity:1;stroke-dasharray:none"
       d="m 181.5,896.86218 0,14 -22,0"
       id="path4102-5-6-3"
       inkscape:connector-curvature="0"
       sodipodi:nodetypes="ccc" />
    <path
       style="fill:none;stroke:#ff0000;stroke-width:5;stroke-linecap:butt;stroke-linejoin:miter;stroke-miterlimit:4;stroke-opacity:1;stroke-dasharray:none"
       d="m 206.5,697.86218 0,-14 22,0"
       id="path4102-79-1"
       inkscape:connector-curvature="0"
       sodipodi:nodetypes="ccc" />
    <path
       style="fill:none;stroke:#ff0000;stroke-width:5;stroke-linecap:butt;stroke-linejoin:miter;stroke-miterlimit:4;stroke-opacity:1;stroke-dasharray:none"
       d="m 181.5,697.86218 0,-14 -22,0"
       id="path4102-5-5-2"
       inkscape:connector-curvature="0"
       sodipodi:nodetypes="ccc" />
    <path
       style="fill:none;stroke:#ff0000;stroke-width:5;stroke-linecap:butt;stroke-linejoin:miter;stroke-miterlimit:4;stroke-opacity:1;stroke-dasharray:none"
       d="m 206.5,656.86218 0,14 22,0"
       id="path4102-7-4-3"
       inkscape:connector-curvature="0"
       sodipodi:nodetypes="ccc" />
    <path
       style="fill:none;stroke:#ff0000;stroke-width:5;stroke-linecap:butt;stroke-linejoin:miter;stroke-miterlimit:4;stroke-opacity:1;stroke-dasharray:none"
       d="m 181.5,656.86218 0,14 -22,0"
       id="path4102-5-6-3-3"
       inkscape:connector-curvature="0"
       sodipodi:nodetypes="ccc" />
    <path
       style="fill:none;stroke:#ff0000;stroke-width:5.00000095;stroke-linecap:butt;stroke-linejoin:miter;stroke-miterlimit:4;stroke-opacity:1;stroke-dasharray:none"
       d="m 186.5,1004.8624 0,14.9998"
       id="path4210"
       inkscape:connector-curvature="0" />
    <path
       style="fill:none;stroke:#ff0000;stroke-width:5.00000095;stroke-linecap:butt;stroke-linejoin:miter;stroke-miterlimit:4;stroke-opacity:1;stroke-dasharray:none"
       d="m 201.5,1004.8624 0,14.9998"
       id="path4210-4"
       inkscape:connector-curvature="0" />
    <path
       style="fill:none;stroke:#ff0000;stroke-width:5.00000095;stroke-linecap:butt;stroke-linejoin:miter;stroke-miterlimit:4;stroke-opacity:1;stroke-dasharray:none"
       d="m 1018.5,1004.8624 0,14.9998"
       id="path4210-1"
       inkscape:connector-curvature="0" />
    <path
       style="fill:none;stroke:#ff0000;stroke-width:5.00000095;stroke-linecap:butt;stroke-linejoin:miter;stroke-miterlimit:4;stroke-opacity:1;stroke-dasharray:none"
       d="m 1033.5,1004.8624 0,14.9998"
       id="path4210-4-1"
       inkscape:connector-curvature="0" />
    <path
       style="fill:none;stroke:#ff0000;stroke-width:5.00000095;stroke-linecap:butt;stroke-linejoin:miter;stroke-miterlimit:4;stroke-opacity:1;stroke-dasharray:none"
       d="m 186.5,814.8624 0,14.9998"
       id="path4210-3"
       inkscape:connector-curvature="0" />
    <path
       style="fill:none;stroke:#ff0000;stroke-width:5.00000095;stroke-linecap:butt;stroke-linejoin:miter;stroke-miterlimit:4;stroke-opacity:1;stroke-dasharray:none"
       d="m 201.5,814.8624 0,14.9998"
       id="path4210-4-8"
       inkscape:connector-curvature="0" />
    <path
       style="fill:none;stroke:#ff0000;stroke-width:5.00000095;stroke-linecap:butt;stroke-linejoin:miter;stroke-miterlimit:4;stroke-opacity:1;stroke-dasharray:none"
       d="m 186.5,764.8624 0,14.9998"
       id="path4210-7"
       inkscape:connector-curvature="0" />
    <path
       style="fill:none;stroke:#ff0000;stroke-width:5.00000095;stroke-linecap:butt;stroke-linejoin:miter;stroke-miterlimit:4;stroke-opacity:1;stroke-dasharray:none"
       d="m 201.5,764.8624 0,14.9998"
       id="path4210-4-4"
       inkscape:connector-curvature="0" />
    <path
       style="fill:none;stroke:#ff0000;stroke-width:5.00000095;stroke-linecap:butt;stroke-linejoin:miter;stroke-miterlimit:4;stroke-opacity:1;stroke-dasharray:none"
       d="m 186.5,574.8624 0,14.9998"
       id="path4210-2"
       inkscape:connector-curvature="0" />
    <path
       style="fill:none;stroke:#ff0000;stroke-width:5.00000095;stroke-linecap:butt;stroke-linejoin:miter;stroke-miterlimit:4;stroke-opacity:1;stroke-dasharray:none"
       d="m 201.5,574.8624 0,14.9998"
       id="path4210-4-7"
       inkscape:connector-curvature="0" />
    <path
       style="fill:none;stroke:#ff0000;stroke-width:5.00000095;stroke-linecap:butt;stroke-linejoin:miter;stroke-miterlimit:4;stroke-opacity:1;stroke-dasharray:none"
       d="m 1018.5,814.8624 0,14.9998"
       id="path4210-79"
       inkscape:connector-curvature="0" />
    <path
       style="fill:none;stroke:#ff0000;stroke-width:5.00000095;stroke-linecap:butt;stroke-linejoin:miter;stroke-miterlimit:4;stroke-opacity:1;stroke-dasharray:none"
       d="m 1033.5,814.8624 0,14.9998"
       id="path4210-4-3"
       inkscape:connector-curvature="0" />
    <path
       style="fill:none;stroke:#ff0000;stroke-width:5.00000095;stroke-linecap:butt;stroke-linejoin:miter;stroke-miterlimit:4;stroke-opacity:1;stroke-dasharray:none"
       d="m 1018.5,764.8624 0,14.9998"
       id="path4210-79-1"
       inkscape:connector-curvature="0" />
    <path
       style="fill:none;stroke:#ff0000;stroke-width:5.00000095;stroke-linecap:butt;stroke-linejoin:miter;stroke-miterlimit:4;stroke-opacity:1;stroke-dasharray:none"
       d="m 1033.5,764.8624 0,14.9998"
       id="path4210-4-3-9"
       inkscape:connector-curvature="0" />
    <path
       style="fill:none;stroke:#ff0000;stroke-width:5.00000095;stroke-linecap:butt;stroke-linejoin:miter;stroke-miterlimit:4;stroke-opacity:1;stroke-dasharray:none"
       d="m 1018.5,574.8624 0,14.9998"
       id="path4210-79-8"
       inkscape:connector-curvature="0" />
    <path
       style="fill:none;stroke:#ff0000;stroke-width:5.00000095;stroke-linecap:butt;stroke-linejoin:miter;stroke-miterlimit:4;stroke-opacity:1;stroke-dasharray:none"
       d="m 1033.5,574.8624 0,14.9998"
       id="path4210-4-3-6"
       inkscape:connector-curvature="0" />
    <path
       sodipodi:type="arc"
       style="fill:none;stroke:#ff0000;stroke-width:3.82608676;stroke-linejoin:miter;stroke-miterlimit:4;stroke-opacity:1;stroke-dasharray:none;stroke-dashoffset:0"
       id="path4325"
       sodipodi:cx="607"
       sodipodi:cy="606"
       sodipodi:rx="44"
       sodipodi:ry="44"
       d="m 651,606 a 44,44 0 1 1 -88,0 44,44 0 1 1 88,0 z"
       transform="matrix(1.3068182,0,0,1.3068182,-183.23864,260.43035)" />
    <path
       sodipodi:type="arc"
       style="fill:#ff0000;stroke:none"
       id="path3908-1-22-5"
       sodipodi:cx="625"
       sodipodi:cy="334"
       sodipodi:rx="57"
       sodipodi:ry="57"
       d="m 682,334 a 57,57 0 1 1 -114,0 57,57 0 1 1 114,0 z"
       transform="matrix(0.0877193,0,0,0.0877193,675.17544,900.06393)" />
    <path
       sodipodi:type="arc"
       style="fill:#ff0000;stroke:none"
       id="path3908-1-22-5-2"
       sodipodi:cx="625"
       sodipodi:cy="334"
       sodipodi:rx="57"
       sodipodi:ry="57"
       d="m 682,334 a 57,57 0 1 1 -114,0 57,57 0 1 1 114,0 z"
       transform="matrix(0.0877193,0,0,0.0877193,675.17544,636.06393)" />
    <path
       sodipodi:type="arc"
       style="fill:#ff0000;stroke:none"
       id="path3908-1-22-5-8"
       sodipodi:cx="625"
       sodipodi:cy="334"
       sodipodi:rx="57"
       sodipodi:ry="57"
       d="m 682,334 a 57,57 0 1 1 -114,0 57,57 0 1 1 114,0 z"
       transform="matrix(0.0877193,0,0,0.0877193,438.17544,900.06393)" />
    <path
       sodipodi:type="arc"
       style="fill:#ff0000;stroke:none"
       id="path3908-1-22-5-2-6"
       sodipodi:cx="625"
       sodipodi:cy="334"
       sodipodi:rx="57"
       sodipodi:ry="57"
       d="m 682,334 a 57,57 0 1 1 -114,0 57,57 0 1 1 114,0 z"
       transform="matrix(0.0877193,0,0,0.0877193,438.17544,636.06393)" />
    <path
       inkscape:connector-curvature="0"
       style="fill:#784421;fill-opacity:1;fill-rule:nonzero;stroke:none"
       d="m 10,432.36218 0,210 c 0,-55.4 44.6,-100 100,-100 l 1000,0 c 55.4,0 100,44.6 100,100 l 0,-210 z m 0,520 0,100.00002 100,0 c -55.4,0 -100,-44.6 -100,-100.00002 z m 1200,0 c 0,55.40002 -44.6,100.00002 -100,100.00002 l 100,0 z"
       id="rect2985-1"
       sodipodi:nodetypes="ccssccccccccccc" />
    <rect
       style="fill:#f2f2f2;fill-opacity:1;fill-rule:nonzero;stroke:#000000"
       id="rect3964"
       width="400"
       height="80"
       x="410"
       y="442.36218" />
    <rect
       style="fill:none;stroke:#000000"
       id="rect2987-0"
       width="1200"
       height="510"
       x="10.5"
       y="541.86218"
       rx="100"
       ry="100" />
    <rect
       style="fill:#f2f2f2;fill-opacity:1;fill-rule:nonzero;stroke:none"
       id="rect3964-6"
       width="80"
       height="27.071068"
       x="730"
       y="515.29114" />
    <path
       style="fill:none;stroke:#000000;stroke-width:1px;stroke-linecap:butt;stroke-linejoin:miter;stroke-opacity:1"
       d="m 730,521.9396 0,20.43148"
       id="path4424"
       inkscape:connector-curvature="0" />
    <path
       style="fill:none;stroke:#000000;stroke-width:1px;stroke-linecap:butt;stroke-linejoin:miter;stroke-opacity:1"
       d="m 810,442.55442 0,99.81665"
       id="path4424-2"
       inkscape:connector-curvature="0" />
    <path
       style="fill:#0066ff;fill-opacity:1;stroke:#ff0000;stroke-width:4.99999952;stroke-linejoin:miter;stroke-miterlimit:4;stroke-opacity:1;stroke-dasharray:none;stroke-dashoffset:0"
       d="m -91.5625,549.5 c -3.77816,6.63421 -5.9375,14.31878 -5.9375,22.5 0,8.59684 2.389641,16.64159 6.53125,23.5 l 31.96875,0 0,-46 -32.5625,0 z"
       transform="translate(0,432.36218)"
       id="path4325-4"
       inkscape:connector-curvature="0" />
    <path
       inkscape:connector-curvature="0"
       style="fill:#80b3ff;fill-opacity:1;stroke:#ff0000;stroke-width:4.99999952;stroke-linejoin:miter;stroke-miterlimit:4;stroke-opacity:1;stroke-dasharray:none;stroke-dashoffset:0"
       d="m 107.68287,774.86218 c 3.70157,6.48998 5.81713,14.00749 5.81713,22.01087 0,8.40991 -2.34119,16.27982 -6.39884,22.98912 l -30.60116,10e-6 0,-44.99999 z"
       id="path4325-4-5"
       sodipodi:nodetypes="cscccc" />
    <path
       inkscape:connector-curvature="0"
       style="fill:#80b3ff;fill-opacity:1;stroke:#ff0000;stroke-width:4.99999952;stroke-linejoin:miter;stroke-miterlimit:4;stroke-opacity:1;stroke-dasharray:none;stroke-dashoffset:0"
       d="m 1112.3171,774.86218 c -3.7015,6.48998 -5.8171,14.00749 -5.8171,22.01087 0,8.40991 2.3412,16.27982 6.3988,22.98912 l 30.6012,10e-6 0,-44.99999 z"
       id="path4325-4-5-0"
       sodipodi:nodetypes="cscccc" />
    <g
       id="g4857"
       transform="translate(10,0)">
      <rect
         y="442.86221"
         x="490.5"
         height="79"
         width="39"
         id="rect4816-7"
         style="fill:#ffffff;stroke:#000000;stroke-width:1;display:inline" />
      <rect
         y="502.36218"
         x="490"
         height="20"
         width="20"
         id="rect4816"
         style="fill:#000000;stroke:none" />
      <rect
         y="482.36218"
         x="510"
         height="20"
         width="20"
         id="rect4816-1"
         style="fill:#000000;stroke:none;display:inline" />
      <rect
         y="462.36218"
         x="490"
         height="20"
         width="20"
         id="rect4816-6"
         style="fill:#000000;stroke:none;display:inline" />
      <rect
         y="442.36218"
         x="510"
         height="20"
         width="20"
         id="rect4816-5"
         style="fill:#000000;stroke:none;display:inline" />
    </g>
  </g>
  <g
     inkscape:groupmode="layer"
     id="layer2"
     inkscape:label="Collision"
     style="display:inline">
    <rect
       style="fill:none;stroke:#ff0000;stroke-width:0.99999994;stroke-linejoin:miter;stroke-miterlimit:4;stroke-opacity:1;stroke-dasharray:none;stroke-dashoffset:0"
       id="rect4556"
       width="419"
       height="129"
       x="810.5"
       y="-20.5" />
    <rect
       style="fill:none;stroke:#ff0000;stroke-width:0.99999994;stroke-linejoin:miter;stroke-miterlimit:4;stroke-opacity:1;stroke-dasharray:none;stroke-dashoffset:0"
       id="rect4556-9"
       width="419"
       height="129"
       x="-9.5"
       y="-20.5" />
    <rect
       style="fill:none;stroke:#ff0000;stroke-width:0.99999994;stroke-linejoin:miter;stroke-miterlimit:4;stroke-opacity:1;stroke-dasharray:none;stroke-dashoffset:0"
       id="rect4576"
       width="99"
       height="699"
       x="-89.5"
       y="-59.5" />
    <rect
       style="fill:none;stroke:#ff0000;stroke-width:0.99999994;stroke-linejoin:miter;stroke-miterlimit:4;stroke-opacity:1;stroke-dasharray:none;stroke-dashoffset:0"
       id="rect4576-0"
       width="99"
       height="699"
       x="1210.5"
       y="-59.5" />
    <rect
       style="fill:none;stroke:#ff0000;stroke-width:0.99999994;stroke-linejoin:miter;stroke-miterlimit:4;stroke-opacity:1;stroke-dasharray:none;stroke-dashoffset:0"
       id="rect4556-9-0"
       width="419"
       height="129"
       x="400.5"
       y="-119.5" />
    <rect
       style="fill:none;stroke:#ff0000;stroke-width:0.99999988;stroke-linejoin:miter;stroke-miterlimit:4;stroke-opacity:1;stroke-dasharray:none;stroke-dashoffset:0"
       id="rect4556-9-6"
       width="419"
       height="19"
       x="310.5"
       y="89.5" />
    <rect
       style="fill:none;stroke:#ff0000;stroke-width:0.99999994;stroke-linejoin:miter;stroke-miterlimit:4;stroke-opacity:1;stroke-dasharray:none;stroke-dashoffset:0"
       id="rect4621"
       width="1199"
       height="99"
       x="0.5"
       y="620.5" />
    <rect
       style="fill:none;stroke:#00ff00;stroke-width:1;stroke-linejoin:miter;stroke-miterlimit:4;stroke-opacity:1;stroke-dasharray:none;stroke-dashoffset:0"
       id="rect4623-1"
       width="59"
       height="29"
       x="1114.5"
       y="83.499992" />
    <rect
       style="fill:none;stroke:#00ff00;stroke-width:1;stroke-linejoin:miter;stroke-miterlimit:4;stroke-opacity:1;stroke-dasharray:none;stroke-dashoffset:0"
       id="rect4623-3"
       width="59"
       height="29"
       x="1128.5"
       y="89.500038" />
    <rect
       style="fill:none;stroke:#00ff00;stroke-width:1;stroke-linejoin:miter;stroke-miterlimit:4;stroke-opacity:1;stroke-dasharray:none;stroke-dashoffset:0"
       id="rect4623-8"
       width="59"
       height="29"
       x="1146.5"
       y="99.5" />
    <rect
       style="fill:none;stroke:#00ff00;stroke-width:1;stroke-linejoin:miter;stroke-miterlimit:4;stroke-opacity:1;stroke-dasharray:none;stroke-dashoffset:0"
       id="rect4623-9"
       width="59"
       height="29"
       x="1156.5"
       y="107.49996" />
    <rect
       style="fill:none;stroke:#00ff00;stroke-width:1;stroke-linejoin:miter;stroke-miterlimit:4;stroke-opacity:1;stroke-dasharray:none;stroke-dashoffset:0"
       id="rect4623-34"
       width="59"
       height="29"
       x="1168.5"
       y="119.49999" />
    <rect
       style="fill:none;stroke:#00ff00;stroke-width:1;stroke-linejoin:miter;stroke-miterlimit:4;stroke-opacity:1;stroke-dasharray:none;stroke-dashoffset:0"
       id="rect4623-4"
       width="59"
       height="29"
       x="1182.5"
       y="139.5" />
    <rect
       style="fill:none;stroke:#00ff00;stroke-width:1;stroke-linejoin:miter;stroke-miterlimit:4;stroke-opacity:1;stroke-dasharray:none;stroke-dashoffset:0"
       id="rect4623-6"
       width="59"
       height="29"
       x="1190.5001"
       y="157.49992" />
    <rect
       style="fill:none;stroke:#00ff00;stroke-width:1;stroke-linejoin:miter;stroke-miterlimit:4;stroke-opacity:1;stroke-dasharray:none;stroke-dashoffset:0"
       id="rect4623-0"
       width="59"
       height="29"
       x="1194.5001"
       y="173.50008" />
    <rect
       style="fill:none;stroke:#00ff00;stroke-width:1;stroke-linejoin:miter;stroke-miterlimit:4;stroke-opacity:1;stroke-dasharray:none;stroke-dashoffset:0"
       id="rect4623-1-4"
       width="59"
       height="29"
       x="1114.5"
       y="-645.5"
       transform="scale(1,-1)" />
    <rect
       style="fill:none;stroke:#00ff00;stroke-width:1;stroke-linejoin:miter;stroke-miterlimit:4;stroke-opacity:1;stroke-dasharray:none;stroke-dashoffset:0"
       id="rect4623-3-9"
       width="59"
       height="29"
       x="1128.5009"
       y="-639.50018"
       transform="scale(1,-1)" />
    <rect
       style="fill:none;stroke:#00ff00;stroke-width:1;stroke-linejoin:miter;stroke-miterlimit:4;stroke-opacity:1;stroke-dasharray:none;stroke-dashoffset:0"
       id="rect4623-8-6"
       width="59"
       height="29"
       x="1146.5001"
       y="-629.5"
       transform="scale(1,-1)" />
    <rect
       style="fill:none;stroke:#00ff00;stroke-width:1;stroke-linejoin:miter;stroke-miterlimit:4;stroke-opacity:1;stroke-dasharray:none;stroke-dashoffset:0"
       id="rect4623-9-3"
       width="59"
       height="29"
       x="1156.5001"
       y="-621.50098"
       transform="scale(1,-1)" />
    <rect
       style="fill:none;stroke:#00ff00;stroke-width:1;stroke-linejoin:miter;stroke-miterlimit:4;stroke-opacity:1;stroke-dasharray:none;stroke-dashoffset:0"
       id="rect4623-34-7"
       width="59"
       height="29"
       x="1168.4994"
       y="-609.50012"
       transform="scale(1,-1)" />
    <rect
       style="fill:none;stroke:#00ff00;stroke-width:1;stroke-linejoin:miter;stroke-miterlimit:4;stroke-opacity:1;stroke-dasharray:none;stroke-dashoffset:0"
       id="rect4623-4-8"
       width="59"
       height="29"
       x="1182.5"
       y="-589.50061"
       transform="scale(1,-1)" />
    <rect
       style="fill:none;stroke:#00ff00;stroke-width:1;stroke-linejoin:miter;stroke-miterlimit:4;stroke-opacity:1;stroke-dasharray:none;stroke-dashoffset:0"
       id="rect4623-6-8"
       width="59"
       height="29"
       x="1190.4998"
       y="-571.50085"
       transform="scale(1,-1)" />
    <rect
       style="fill:none;stroke:#00ff00;stroke-width:1;stroke-linejoin:miter;stroke-miterlimit:4;stroke-opacity:1;stroke-dasharray:none;stroke-dashoffset:0"
       id="rect4623-0-2"
       width="59"
       height="29"
       x="1194.4989"
       y="-555.50024"
       transform="scale(1,-1)" />
    <rect
       style="fill:none;stroke:#00ff00;stroke-width:1;stroke-linejoin:miter;stroke-miterlimit:4;stroke-opacity:1;stroke-dasharray:none;stroke-dashoffset:0"
       id="rect4623-1-5"
       width="59"
       height="29"
       x="-106.5"
       y="83.500237"
       transform="scale(-1,1)" />
    <rect
       style="fill:none;stroke:#00ff00;stroke-width:1;stroke-linejoin:miter;stroke-miterlimit:4;stroke-opacity:1;stroke-dasharray:none;stroke-dashoffset:0"
       id="rect4623-3-98"
       width="59"
       height="29"
       x="-92.71582"
       y="89.499985"
       transform="scale(-1,1)" />
    <rect
       style="fill:none;stroke:#00ff00;stroke-width:1;stroke-linejoin:miter;stroke-miterlimit:4;stroke-opacity:1;stroke-dasharray:none;stroke-dashoffset:0"
       id="rect4623-8-4"
       width="59"
       height="29"
       x="-74.715263"
       y="99.499817"
       transform="scale(-1,1)" />
    <rect
       style="fill:none;stroke:#00ff00;stroke-width:1;stroke-linejoin:miter;stroke-miterlimit:4;stroke-opacity:1;stroke-dasharray:none;stroke-dashoffset:0"
       id="rect4623-9-0"
       width="59"
       height="29"
       x="-64.714973"
       y="107.49936"
       transform="scale(-1,1)" />
    <rect
       style="fill:none;stroke:#00ff00;stroke-width:1;stroke-linejoin:miter;stroke-miterlimit:4;stroke-opacity:1;stroke-dasharray:none;stroke-dashoffset:0"
       id="rect4623-34-76"
       width="59"
       height="29"
       x="-52.715176"
       y="119.50063"
       transform="scale(-1,1)" />
    <rect
       style="fill:none;stroke:#00ff00;stroke-width:1;stroke-linejoin:miter;stroke-miterlimit:4;stroke-opacity:1;stroke-dasharray:none;stroke-dashoffset:0"
       id="rect4623-4-3"
       width="59"
       height="29"
       x="-38.715214"
       y="139.50021"
       transform="scale(-1,1)" />
    <rect
       style="fill:none;stroke:#00ff00;stroke-width:1;stroke-linejoin:miter;stroke-miterlimit:4;stroke-opacity:1;stroke-dasharray:none;stroke-dashoffset:0"
       id="rect4623-6-6"
       width="59"
       height="29"
       x="-30.71413"
       y="157.49976"
       transform="scale(-1,1)" />
    <rect
       style="fill:none;stroke:#00ff00;stroke-width:1;stroke-linejoin:miter;stroke-miterlimit:4;stroke-opacity:1;stroke-dasharray:none;stroke-dashoffset:0"
       id="rect4623-0-1"
       width="59"
       height="29"
       x="-26.714334"
       y="173.49986"
       transform="scale(-1,1)" />
    <rect
       style="fill:none;stroke:#00ff00;stroke-width:1;stroke-linejoin:miter;stroke-miterlimit:4;stroke-opacity:1;stroke-dasharray:none;stroke-dashoffset:0"
       id="rect4623-1-4-2"
       width="59"
       height="29"
       x="-107.5"
       y="-645.50037"
       transform="scale(-1,-1)" />
    <rect
       style="fill:none;stroke:#00ff00;stroke-width:1;stroke-linejoin:miter;stroke-miterlimit:4;stroke-opacity:1;stroke-dasharray:none;stroke-dashoffset:0"
       id="rect4623-3-9-0"
       width="59"
       height="29"
       x="-92.500023"
       y="-639.50031"
       transform="scale(-1,-1)" />
    <rect
       style="fill:none;stroke:#00ff00;stroke-width:1;stroke-linejoin:miter;stroke-miterlimit:4;stroke-opacity:1;stroke-dasharray:none;stroke-dashoffset:0"
       id="rect4623-8-6-9"
       width="59"
       height="29"
       x="-74.714668"
       y="-629.50061"
       transform="scale(-1,-1)" />
    <rect
       style="fill:none;stroke:#00ff00;stroke-width:1;stroke-linejoin:miter;stroke-miterlimit:4;stroke-opacity:1;stroke-dasharray:none;stroke-dashoffset:0"
       id="rect4623-9-3-7"
       width="59"
       height="29"
       x="-64.715279"
       y="-621.50122"
       transform="scale(-1,-1)" />
    <rect
       style="fill:none;stroke:#00ff00;stroke-width:1;stroke-linejoin:miter;stroke-miterlimit:4;stroke-opacity:1;stroke-dasharray:none;stroke-dashoffset:0"
       id="rect4623-34-7-3"
       width="59"
       height="29"
       x="-52.715652"
       y="-609.49994"
       transform="scale(-1,-1)" />
    <rect
       style="fill:none;stroke:#00ff00;stroke-width:1;stroke-linejoin:miter;stroke-miterlimit:4;stroke-opacity:1;stroke-dasharray:none;stroke-dashoffset:0"
       id="rect4623-4-8-7"
       width="59"
       height="29"
       x="-38.715469"
       y="-589.50049"
       transform="scale(-1,-1)" />
    <rect
       style="fill:none;stroke:#00ff00;stroke-width:1;stroke-linejoin:miter;stroke-miterlimit:4;stroke-opacity:1;stroke-dasharray:none;stroke-dashoffset:0"
       id="rect4623-6-8-2"
       width="59"
       height="29"
       x="-30.715111"
       y="-571.50153"
       transform="scale(-1,-1)" />
    <rect
       style="fill:none;stroke:#00ff00;stroke-width:1;stroke-linejoin:miter;stroke-miterlimit:4;stroke-opacity:1;stroke-dasharray:none;stroke-dashoffset:0"
       id="rect4623-0-2-6"
       width="59"
       height="29"
       x="-561.76025"
       y="-111.39814"
       transform="matrix(-0.17364817,-0.98480776,0.98480776,-0.17364817,0,0)" />
    <rect
       style="fill:none;stroke:#00ff00;stroke-width:1;stroke-linejoin:miter;stroke-miterlimit:4;stroke-opacity:1;stroke-dasharray:none;stroke-dashoffset:0"
       id="rect4814"
       width="79"
       height="19"
       x="730.5"
       y="89.5" />
    <rect
       style="fill:none;stroke:#00ff00;stroke-width:0.99999994;stroke-linejoin:miter;stroke-miterlimit:4;stroke-opacity:1;stroke-dasharray:none;stroke-dashoffset:0"
       id="rect4864"
       width="129"
       height="79"
       x="410.5"
       y="10.5" />
    <path
       sodipodi:type="arc"
       style="fill:none;stroke:#0000ff;stroke-width:0.77551019;stroke-linejoin:miter;stroke-miterlimit:4;stroke-opacity:1;stroke-dasharray:none;stroke-dashoffset:0"
       id="path4866"
       sodipodi:cx="1068"
       sodipodi:cy="380"
       sodipodi:rx="19"
       sodipodi:ry="19"
       d="m 1087,380 a 19,19 0 1 1 -38,0 19,19 0 1 1 38,0 z"
       transform="matrix(1.2894737,0,0,1.2894737,-199.15791,-125.00001)" />
    <path
       sodipodi:type="arc"
       style="fill:none;stroke:#0000ff;stroke-width:0.77551019;stroke-linejoin:miter;stroke-miterlimit:4;stroke-opacity:1;stroke-dasharray:none;stroke-dashoffset:0;display:inline"
       id="path4866-5"
       sodipodi:cx="1068"
       sodipodi:cy="380"
       sodipodi:rx="19"
       sodipodi:ry="19"
       d="m 1087,380 a 19,19 0 1 1 -38,0 19,19 0 1 1 38,0 z"
       transform="matrix(1.2894737,0,0,1.2894737,-1335.1579,-125.00001)" />
    <path
       sodipodi:type="arc"
       style="fill:none;stroke:#0000ff;stroke-width:0.97435898;stroke-linejoin:miter;stroke-miterlimit:4;stroke-opacity:1;stroke-dasharray:none;stroke-dashoffset:0;display:inline"
       id="path4866-4"
       sodipodi:cx="1068"
       sodipodi:cy="380"
       sodipodi:rx="19"
       sodipodi:ry="19"
       d="m 1087,380 a 19,19 0 1 1 -38,0 19,19 0 1 1 38,0 z"
       transform="matrix(1.0263158,0,0,1.0263158,-486.10526,-165)" />
    <path
       sodipodi:type="arc"
       style="fill:none;stroke:#0000ff;stroke-width:0.97435904;stroke-linejoin:miter;stroke-miterlimit:4;stroke-opacity:1;stroke-dasharray:none;stroke-dashoffset:0;display:inline"
       id="path4866-4-1"
       sodipodi:cx="1068"
       sodipodi:cy="380"
       sodipodi:rx="19"
       sodipodi:ry="19"
       d="m 1087,380 a 19,19 0 1 1 -38,0 19,19 0 1 1 38,0 z"
       transform="matrix(1.0263158,0,0,1.0263158,-486.10526,115)" />
  </g>
</svg>
