<?xml version="1.0" encoding="UTF-8" standalone="no"?>
<!-- Created with Inkscape (http://www.inkscape.org/) -->

<svg
   xmlns:dc="http://purl.org/dc/elements/1.1/"
   xmlns:cc="http://creativecommons.org/ns#"
   xmlns:rdf="http://www.w3.org/1999/02/22-rdf-syntax-ns#"
   xmlns:svg="http://www.w3.org/2000/svg"
   xmlns="http://www.w3.org/2000/svg"
   xmlns:sodipodi="http://sodipodi.sourceforge.net/DTD/sodipodi-0.dtd"
   xmlns:inkscape="http://www.inkscape.org/namespaces/inkscape"
   width="600"
   height="1240"
   id="svg2"
   version="1.1"
   inkscape:version="0.48.5 r10040"
   sodipodi:docname="map03.svg"
   inkscape:export-filename="C:\Users\Nick\Desktop\HTML5 Games\Finish Line\img\map03.png"
   inkscape:export-xdpi="90"
   inkscape:export-ydpi="90">
  <defs
     id="defs4" />
  <sodipodi:namedview
     id="base"
     pagecolor="#ffffff"
     bordercolor="#666666"
     borderopacity="1.0"
     inkscape:pageopacity="0.0"
     inkscape:pageshadow="2"
     inkscape:zoom="0.70710678"
     inkscape:cx="469.75835"
     inkscape:cy="579.12092"
     inkscape:document-units="px"
     inkscape:current-layer="layer2"
     showgrid="false"
     showguides="true"
     inkscape:guide-bbox="true"
     fit-margin-top="0"
     fit-margin-left="0"
     fit-margin-right="0"
     fit-margin-bottom="0"
     inkscape:window-width="1920"
     inkscape:window-height="1018"
     inkscape:window-x="-8"
     inkscape:window-y="-8"
     inkscape:window-maximized="1" />
  <metadata
     id="metadata7">
    <rdf:RDF>
      <cc:Work
         rdf:about="">
        <dc:format>image/svg+xml</dc:format>
        <dc:type
           rdf:resource="http://purl.org/dc/dcmitype/StillImage" />
        <dc:title />
      </cc:Work>
    </rdf:RDF>
  </metadata>
  <g
     inkscape:label="Layer 1"
     inkscape:groupmode="layer"
     id="layer1"
     transform="translate(-2.9802322e-8,187.63782)"
     style="display:none"
     sodipodi:insensitive="true">
    <rect
       style="fill:#803300;stroke:#803300;stroke-width:0.99999994;stroke-linejoin:miter;stroke-miterlimit:4;stroke-opacity:1;stroke-dasharray:none;stroke-dashoffset:0"
       id="rect2985"
       width="599"
       height="1059"
       x="0.5"
       y="-7.1378174"
       rx="50"
       ry="50" />
    <rect
       style="fill:#008000;fill-opacity:1;fill-rule:nonzero;stroke:none"
       id="rect2987"
       width="500"
       height="960"
       x="50"
       y="42.362183" />
    <rect
       style="fill:#44aa00;fill-opacity:1;fill-rule:nonzero;stroke:none"
       id="rect2987-7"
       width="460"
       height="920"
       x="70"
       y="62.362183" />
    <rect
       style="fill:#803300;fill-opacity:1;fill-rule:nonzero;stroke:none"
       id="rect3027-8"
       width="220"
       height="220"
       x="190"
       y="-187.63782"
       rx="20"
       ry="20" />
    <rect
       style="fill:#44aa00;fill-opacity:1;fill-rule:nonzero;stroke:none"
       id="rect3027"
       width="100"
       height="200"
       x="250"
       y="-127.63782" />
    <path
       transform="matrix(0.70710678,-0.70710678,0.70710678,0.70710678,0,0)"
       style="fill:#44aa00;fill-opacity:1;stroke:none"
       d="m -681.45122,719.13245 61.31371,0 0,50 -61.31371,0 z"
       id="rect3255-1-3"
       inkscape:connector-curvature="0"
       sodipodi:nodetypes="ccccc" />
    <path
       sodipodi:type="arc"
       style="fill:#1a1a1a;fill-opacity:1;fill-rule:nonzero;stroke:none"
       id="path3033"
       sodipodi:cx="52"
       sodipodi:cy="193"
       sodipodi:rx="28"
       sodipodi:ry="28"
       d="m 80,193 a 28,28 0 1 1 -56,0 28,28 0 1 1 56,0 z"
       transform="matrix(0.89285714,0,0,0.89285714,-1.428571,835.04075)" />
    <path
       transform="matrix(0.70710678,-0.70710678,0.70710678,0.70710678,0,0)"
       style="fill:#44aa00;fill-opacity:1;stroke:none"
       d="m -344.86838,1044.4016 50,0 0,61.3137 -50,0 z"
       id="rect3255-1-2"
       inkscape:connector-curvature="0"
       sodipodi:nodetypes="ccccc" />
    <path
       sodipodi:type="arc"
       style="fill:#1a1a1a;fill-opacity:1;fill-rule:nonzero;stroke:none"
       id="path3033-4"
       sodipodi:cx="52"
       sodipodi:cy="193"
       sodipodi:rx="28"
       sodipodi:ry="28"
       d="m 80,193 a 28,28 0 1 1 -56,0 28,28 0 1 1 56,0 z"
       transform="matrix(0.89285714,0,0,0.89285714,508.57143,835.04075)" />
    <path
       style="fill:#44aa00;fill-opacity:1;stroke:none"
       d="M 26.644663,54.362184 62.000002,19.006845 107.35534,64.362184 72.000002,99.717523 z"
       id="rect3255-1-3-21"
       inkscape:connector-curvature="0"
       sodipodi:nodetypes="ccccc" />
    <path
       sodipodi:type="arc"
       style="fill:#1a1a1a;fill-opacity:1;fill-rule:nonzero;stroke:none"
       id="path3033-0"
       sodipodi:cx="52"
       sodipodi:cy="193"
       sodipodi:rx="28"
       sodipodi:ry="28"
       d="m 80,193 a 28,28 0 1 1 -56,0 28,28 0 1 1 56,0 z"
       transform="matrix(0.89285714,0,0,0.89285714,-1.428571,-134.95925)" />
    <path
       style="fill:#44aa00;fill-opacity:1;stroke:none"
       d="m 492.64465,64.362186 45.35534,-45.355342 35.35534,35.355339 -45.35534,45.355342 z"
       id="rect3255-1"
       inkscape:connector-curvature="0"
       sodipodi:nodetypes="ccccc" />
    <path
       sodipodi:type="arc"
       style="fill:#1a1a1a;fill-opacity:1;fill-rule:nonzero;stroke:none"
       id="path3033-0-9"
       sodipodi:cx="52"
       sodipodi:cy="193"
       sodipodi:rx="28"
       sodipodi:ry="28"
       d="m 80,193 a 28,28 0 1 1 -56,0 28,28 0 1 1 56,0 z"
       transform="matrix(0.89285714,0,0,0.89285714,508.57143,-134.95925)" />
    <rect
       style="fill:#44aa00;fill-opacity:1;stroke:none"
       id="rect3255-1-3-2"
       width="50"
       height="50"
       x="45"
       y="497.36218" />
    <path
       sodipodi:type="arc"
       style="fill:#1a1a1a;fill-opacity:1;fill-rule:nonzero;stroke:none"
       id="path3033-0-4"
       sodipodi:cx="52"
       sodipodi:cy="193"
       sodipodi:rx="28"
       sodipodi:ry="28"
       d="m 80,193 a 28,28 0 1 1 -56,0 28,28 0 1 1 56,0 z"
       transform="matrix(0.89285714,0,0,0.89285714,-1.428571,350.04075)" />
    <rect
       style="fill:#44aa00;fill-opacity:1;stroke:none"
       id="rect3255-1-4"
       width="50"
       height="50"
       x="505"
       y="497.36218" />
    <path
       sodipodi:type="arc"
       style="fill:#1a1a1a;fill-opacity:1;fill-rule:nonzero;stroke:none"
       id="path3033-0-4-8"
       sodipodi:cx="52"
       sodipodi:cy="193"
       sodipodi:rx="28"
       sodipodi:ry="28"
       d="m 80,193 a 28,28 0 1 1 -56,0 28,28 0 1 1 56,0 z"
       transform="matrix(0.89285714,0,0,0.89285714,508.57143,350.04075)" />
    <rect
       style="fill:#ffffff;fill-opacity:1;fill-rule:nonzero;stroke:none"
       id="rect3123-7"
       width="100"
       height="40"
       x="250"
       y="-47.637817" />
    <rect
       style="fill:#000000;fill-opacity:1;fill-rule:nonzero;stroke:none"
       id="rect3123"
       width="20"
       height="20"
       x="250"
       y="-27.637819" />
    <rect
       style="fill:#000000;fill-opacity:1;fill-rule:nonzero;stroke:none"
       id="rect3123-2"
       width="20"
       height="20"
       x="290"
       y="-27.637819" />
    <rect
       style="fill:#000000;fill-opacity:1;fill-rule:nonzero;stroke:none"
       id="rect3123-4"
       width="20"
       height="20"
       x="330"
       y="-27.637819" />
    <rect
       style="fill:#000000;fill-opacity:1;fill-rule:nonzero;stroke:none"
       id="rect3123-5"
       width="20"
       height="20"
       x="270"
       y="-47.637817" />
    <rect
       style="fill:#000000;fill-opacity:1;fill-rule:nonzero;stroke:none"
       id="rect3123-51"
       width="20"
       height="20"
       x="310"
       y="-47.637817" />
    <rect
       style="fill:#44aa00;fill-opacity:1;stroke:none"
       id="rect3255"
       width="49"
       height="49"
       x="719"
       y="44.862179" />
  </g>
  <g
     inkscape:groupmode="layer"
     id="layer2"
     inkscape:label="Collision"
     style="display:inline">
    <path
       sodipodi:type="arc"
       style="fill:#ff0000;fill-opacity:1;fill-rule:nonzero;stroke:none"
       id="path3031"
       sodipodi:cx="304"
       sodipodi:cy="420"
       sodipodi:rx="21"
       sodipodi:ry="21"
       d="m 325,420 a 21,21 0 1 1 -42,0 21,21 0 1 1 42,0 z"
       transform="matrix(0.95238095,0,0,0.95238095,10.476191,88.000001)" />
    <path
       sodipodi:type="arc"
       style="fill:#ff0000;fill-opacity:1;fill-rule:nonzero;stroke:none"
       id="path3031-1"
       sodipodi:cx="304"
       sodipodi:cy="420"
       sodipodi:rx="21"
       sodipodi:ry="21"
       d="m 325,420 a 21,21 0 1 1 -42,0 21,21 0 1 1 42,0 z"
       transform="matrix(0.95238095,0,0,0.95238095,30.476191,54.000001)" />
    <path
       sodipodi:type="arc"
       style="fill:#ff0000;fill-opacity:1;fill-rule:nonzero;stroke:none"
       id="path3031-15"
       sodipodi:cx="304"
       sodipodi:cy="420"
       sodipodi:rx="21"
       sodipodi:ry="21"
       d="m 325,420 a 21,21 0 1 1 -42,0 21,21 0 1 1 42,0 z"
       transform="matrix(0.95238095,0,0,0.95238095,-9.5238088,54.000001)" />
    <path
       sodipodi:type="arc"
       style="fill:#ff0000;fill-opacity:1;fill-rule:nonzero;stroke:none"
       id="path3031-2"
       sodipodi:cx="304"
       sodipodi:cy="420"
       sodipodi:rx="21"
       sodipodi:ry="21"
       d="m 325,420 a 21,21 0 1 1 -42,0 21,21 0 1 1 42,0 z"
       transform="matrix(0.95238095,0,0,0.95238095,50.476191,20.000001)" />
    <path
       sodipodi:type="arc"
       style="fill:#ff0000;fill-opacity:1;fill-rule:nonzero;stroke:none"
       id="path3031-7"
       sodipodi:cx="304"
       sodipodi:cy="420"
       sodipodi:rx="21"
       sodipodi:ry="21"
       d="m 325,420 a 21,21 0 1 1 -42,0 21,21 0 1 1 42,0 z"
       transform="matrix(0.95238095,0,0,0.95238095,10.476191,20.000001)" />
    <path
       sodipodi:type="arc"
       style="fill:#ff0000;fill-opacity:1;fill-rule:nonzero;stroke:none"
       id="path3031-6"
       sodipodi:cx="304"
       sodipodi:cy="420"
       sodipodi:rx="21"
       sodipodi:ry="21"
       d="m 325,420 a 21,21 0 1 1 -42,0 21,21 0 1 1 42,0 z"
       transform="matrix(0.95238095,0,0,0.95238095,-29.523809,20.000001)" />
    <rect
       style="fill:none;stroke:#ff0000;stroke-width:0.99999994"
       id="rect3251"
       width="99"
       height="69"
       x="250.5"
       y="180.5" />
    <rect
       style="fill:none;stroke:#00ff00;stroke-width:1"
       id="rect4115"
       width="99"
       height="119"
       x="250.5"
       y="60.5" />
    <rect
       style="fill:none;stroke:#ff0000;stroke-width:0.99999982;stroke-linejoin:miter;stroke-miterlimit:4;stroke-opacity:1;stroke-dasharray:none;stroke-dashoffset:0"
       id="rect4117"
       width="145"
       height="249.00002"
       x="105.5"
       y="0.49998483" />
    <rect
       style="fill:none;stroke:#ff0000;stroke-width:0.99999982;stroke-linejoin:miter;stroke-miterlimit:4;stroke-opacity:1;stroke-dasharray:none;stroke-dashoffset:0;display:inline"
       id="rect4117-6"
       width="145"
       height="249.00002"
       x="349.5"
       y="0.49999991" />
    <rect
       style="fill:none;stroke:#ff0000;stroke-width:1;stroke-linejoin:miter;stroke-miterlimit:4;stroke-opacity:1;stroke-dasharray:none;stroke-dashoffset:0"
       id="rect4137"
       width="199"
       height="59"
       x="200.5"
       y="0.5" />
    <rect
       style="fill:none;stroke:#ff0000;stroke-width:0.99999964;stroke-linejoin:miter;stroke-miterlimit:4;stroke-opacity:1;stroke-dasharray:none;stroke-dashoffset:0"
       id="rect4139"
       width="389"
       height="69"
       x="105.5"
       y="1170.5" />
    <rect
       style="fill:none;stroke:#ff0000;stroke-width:1;stroke-linejoin:miter;stroke-miterlimit:4;stroke-opacity:1;stroke-dasharray:none;stroke-dashoffset:0"
       id="rect4141"
       width="69"
       height="398.99997"
       x="0.5"
       y="735.5" />
    <rect
       style="fill:none;stroke:#ff0000;stroke-width:1;stroke-linejoin:miter;stroke-miterlimit:4;stroke-opacity:1;stroke-dasharray:none;stroke-dashoffset:0;display:inline"
       id="rect4141-8"
       width="69"
       height="398.99997"
       x="530.5"
       y="735.5" />
    <rect
       style="fill:none;stroke:#ff0000;stroke-width:1;stroke-linejoin:miter;stroke-miterlimit:4;stroke-opacity:1;stroke-dasharray:none;stroke-dashoffset:0;display:inline"
       id="rect4141-5"
       width="69"
       height="398.99997"
       x="0.5"
       y="285.5" />
    <rect
       style="fill:none;stroke:#ff0000;stroke-width:1;stroke-linejoin:miter;stroke-miterlimit:4;stroke-opacity:1;stroke-dasharray:none;stroke-dashoffset:0;display:inline"
       id="rect4141-7"
       width="69"
       height="398.99997"
       x="530.5"
       y="285.5" />
    <rect
       style="fill:none;stroke:#ff0000;stroke-width:1;stroke-linejoin:miter;stroke-miterlimit:4;stroke-opacity:1;stroke-dasharray:none;stroke-dashoffset:0"
       id="rect4175"
       width="149"
       height="99"
       x="543.5"
       y="1102.5" />
    <rect
       style="fill:none;stroke:#ff0000;stroke-width:1;stroke-linejoin:miter;stroke-miterlimit:4;stroke-opacity:1;stroke-dasharray:none;stroke-dashoffset:0;display:inline"
       id="rect4175-6"
       width="149"
       height="99"
       x="437.5"
       y="1208.5" />
    <rect
       style="fill:none;stroke:#ff0000;stroke-width:1;stroke-linejoin:miter;stroke-miterlimit:4;stroke-opacity:1;stroke-dasharray:none;stroke-dashoffset:0;display:inline"
       id="rect4175-6-1"
       width="149"
       height="99"
       x="13.5"
       y="1208.5" />
    <rect
       style="fill:none;stroke:#ff0000;stroke-width:1;stroke-linejoin:miter;stroke-miterlimit:4;stroke-opacity:1;stroke-dasharray:none;stroke-dashoffset:0;display:inline"
       id="rect4175-8"
       width="149"
       height="99"
       x="-92.5"
       y="1102.5" />
    <rect
       style="fill:none;stroke:#ff0000;stroke-width:1;stroke-linejoin:miter;stroke-miterlimit:4;stroke-opacity:1;stroke-dasharray:none;stroke-dashoffset:0;display:inline"
       id="rect4175-6-9"
       width="149"
       height="99"
       x="437.5"
       y="112.5" />
    <rect
       style="fill:none;stroke:#ff0000;stroke-width:1;stroke-linejoin:miter;stroke-miterlimit:4;stroke-opacity:1;stroke-dasharray:none;stroke-dashoffset:0;display:inline"
       id="rect4175-2"
       width="149"
       height="99"
       x="543.5"
       y="218.5" />
    <rect
       style="fill:none;stroke:#ff0000;stroke-width:1;stroke-linejoin:miter;stroke-miterlimit:4;stroke-opacity:1;stroke-dasharray:none;stroke-dashoffset:0;display:inline"
       id="rect4175-8-7"
       width="149"
       height="99"
       x="-92.5"
       y="218.5" />
    <rect
       style="fill:none;stroke:#ff0000;stroke-width:1;stroke-linejoin:miter;stroke-miterlimit:4;stroke-opacity:1;stroke-dasharray:none;stroke-dashoffset:0;display:inline"
       id="rect4175-6-1-9"
       width="149"
       height="99"
       x="13.5"
       y="112.5" />
    <rect
       style="fill:none;stroke:#00ff00;stroke-width:1;stroke-linejoin:miter;stroke-miterlimit:4;stroke-opacity:1;stroke-dasharray:none;stroke-dashoffset:0"
       id="rect4303"
       width="49"
       height="29"
       x="657.5"
       y="-598.5"
       transform="matrix(0,1,-1,0,0,0)" />
    <rect
       style="fill:none;stroke:#00ff00;stroke-width:1;stroke-linejoin:miter;stroke-miterlimit:4;stroke-opacity:1;stroke-dasharray:none;stroke-dashoffset:0;display:inline"
       id="rect4303-3"
       width="49"
       height="29"
       x="713.5"
       y="-598.5"
       transform="matrix(0,1,-1,0,0,0)" />
    <rect
       style="fill:none;stroke:#00ff00;stroke-width:1;stroke-linejoin:miter;stroke-miterlimit:4;stroke-opacity:1;stroke-dasharray:none;stroke-dashoffset:0;display:inline"
       id="rect4303-34"
       width="49"
       height="29"
       x="685.5"
       y="-609.5"
       transform="matrix(0,1,-1,0,0,0)" />
    <rect
       style="fill:none;stroke:#00ff00;stroke-width:1;stroke-linejoin:miter;stroke-miterlimit:4;stroke-opacity:1;stroke-dasharray:none;stroke-dashoffset:0;display:inline"
       id="rect4303-1"
       width="49"
       height="29"
       x="657.5"
       y="1.5"
       transform="matrix(0,1,1,0,0,0)" />
    <rect
       style="fill:none;stroke:#00ff00;stroke-width:1;stroke-linejoin:miter;stroke-miterlimit:4;stroke-opacity:1;stroke-dasharray:none;stroke-dashoffset:0;display:inline"
       id="rect4303-3-1"
       width="49"
       height="29"
       x="713.5"
       y="1.5"
       transform="matrix(0,1,1,0,0,0)" />
    <rect
       style="fill:none;stroke:#00ff00;stroke-width:1;stroke-linejoin:miter;stroke-miterlimit:4;stroke-opacity:1;stroke-dasharray:none;stroke-dashoffset:0;display:inline"
       id="rect4303-34-3"
       width="49"
       height="29"
       x="685.5"
       y="-9.5"
       transform="matrix(0,1,1,0,0,0)" />
    <rect
       style="fill:none;stroke:#00ff00;stroke-width:1;stroke-linejoin:miter;stroke-miterlimit:4;stroke-opacity:1;stroke-dasharray:none;stroke-dashoffset:0;display:inline"
       id="rect4303-8"
       width="49"
       height="29"
       x="-1219.5"
       y="580.5"
       transform="matrix(0,-1,1,0,0,0)" />
    <rect
       style="fill:none;stroke:#00ff00;stroke-width:1;stroke-linejoin:miter;stroke-miterlimit:4;stroke-opacity:1;stroke-dasharray:none;stroke-dashoffset:0;display:inline"
       id="rect4303-3-7"
       width="49"
       height="29"
       x="-580.5"
       y="-1249.5"
       transform="scale(-1,-1)" />
    <rect
       style="fill:none;stroke:#00ff00;stroke-width:1;stroke-linejoin:miter;stroke-miterlimit:4;stroke-opacity:1;stroke-dasharray:none;stroke-dashoffset:0;display:inline"
       id="rect4303-34-4"
       width="49"
       height="29"
       x="-1247.5"
       y="568.5"
       transform="matrix(0,-1,1,0,0,0)" />
    <rect
       style="fill:none;stroke:#00ff00;stroke-width:1;stroke-linejoin:miter;stroke-miterlimit:4;stroke-opacity:1;stroke-dasharray:none;stroke-dashoffset:0;display:inline"
       id="rect4303-8-2"
       width="49"
       height="29"
       x="-1219.5"
       y="-19.5"
       transform="matrix(0,-1,-1,0,0,0)" />
    <rect
       style="fill:none;stroke:#00ff00;stroke-width:1;stroke-linejoin:miter;stroke-miterlimit:4;stroke-opacity:1;stroke-dasharray:none;stroke-dashoffset:0;display:inline"
       id="rect4303-3-7-7"
       width="49"
       height="29"
       x="20.5"
       y="-1249.5"
       transform="scale(1,-1)" />
    <rect
       style="fill:none;stroke:#00ff00;stroke-width:1;stroke-linejoin:miter;stroke-miterlimit:4;stroke-opacity:1;stroke-dasharray:none;stroke-dashoffset:0;display:inline"
       id="rect4303-34-4-7"
       width="49"
       height="29"
       x="-1247.5"
       y="-31.5"
       transform="matrix(0,-1,-1,0,0,0)" />
    <rect
       style="fill:none;stroke:#00ff00;stroke-width:1;stroke-linejoin:miter;stroke-miterlimit:4;stroke-opacity:1;stroke-dasharray:none;stroke-dashoffset:0;display:inline"
       id="rect4303-8-9"
       width="49"
       height="29"
       x="200.5"
       y="580.5"
       transform="matrix(0,1,1,0,0,0)" />
    <rect
       style="fill:none;stroke:#00ff00;stroke-width:1;stroke-linejoin:miter;stroke-miterlimit:4;stroke-opacity:1;stroke-dasharray:none;stroke-dashoffset:0;display:inline"
       id="rect4303-3-7-3"
       width="49"
       height="29"
       x="-580.5"
       y="170.5"
       transform="scale(-1,1)" />
    <rect
       style="fill:none;stroke:#00ff00;stroke-width:1;stroke-linejoin:miter;stroke-miterlimit:4;stroke-opacity:1;stroke-dasharray:none;stroke-dashoffset:0;display:inline"
       id="rect4303-34-4-1"
       width="49"
       height="29"
       x="172.5"
       y="568.5"
       transform="matrix(0,1,1,0,0,0)" />
    <rect
       style="fill:none;stroke:#00ff00;stroke-width:1;stroke-linejoin:miter;stroke-miterlimit:4;stroke-opacity:1;stroke-dasharray:none;stroke-dashoffset:0;display:inline"
       id="rect4303-8-98"
       width="49"
       height="29"
       x="200.5"
       y="-19.5"
       transform="matrix(0,1,-1,0,0,0)" />
    <rect
       style="fill:none;stroke:#00ff00;stroke-width:1;stroke-linejoin:miter;stroke-miterlimit:4;stroke-opacity:1;stroke-dasharray:none;stroke-dashoffset:0;display:inline"
       id="rect4303-3-7-6"
       width="49"
       height="29"
       x="20.5"
       y="170.5" />
    <rect
       style="fill:none;stroke:#00ff00;stroke-width:1;stroke-linejoin:miter;stroke-miterlimit:4;stroke-opacity:1;stroke-dasharray:none;stroke-dashoffset:0;display:inline"
       id="rect4303-34-4-5"
       width="49"
       height="29"
       x="172.5"
       y="-31.5"
       transform="matrix(0,1,-1,0,0,0)" />
    <path
       sodipodi:type="arc"
       style="fill:#0000ff;fill-opacity:1;fill-rule:nonzero;stroke:none;display:inline"
       id="path3033-1"
       sodipodi:cx="52"
       sodipodi:cy="193"
       sodipodi:rx="28"
       sodipodi:ry="28"
       d="m 80,193 a 28,28 0 1 1 -56,0 28,28 0 1 1 56,0 z"
       transform="matrix(0.89285714,0,0,0.89285714,-1.4285714,1022.6786)" />
    <path
       sodipodi:type="arc"
       style="fill:#0000ff;fill-opacity:1;fill-rule:nonzero;stroke:none;display:inline"
       id="path3033-4-7"
       sodipodi:cx="52"
       sodipodi:cy="193"
       sodipodi:rx="28"
       sodipodi:ry="28"
       d="m 80,193 a 28,28 0 1 1 -56,0 28,28 0 1 1 56,0 z"
       transform="matrix(0.89285714,0,0,0.89285714,508.57143,1022.6786)" />
    <path
       sodipodi:type="arc"
       style="fill:#0000ff;fill-opacity:1;fill-rule:nonzero;stroke:none;display:inline"
       id="path3033-0-40"
       sodipodi:cx="52"
       sodipodi:cy="193"
       sodipodi:rx="28"
       sodipodi:ry="28"
       d="m 80,193 a 28,28 0 1 1 -56,0 28,28 0 1 1 56,0 z"
       transform="matrix(0.89285714,0,0,0.89285714,-1.4285714,52.678572)" />
    <path
       sodipodi:type="arc"
       style="fill:#0000ff;fill-opacity:1;fill-rule:nonzero;stroke:none;display:inline"
       id="path3033-0-9-9"
       sodipodi:cx="52"
       sodipodi:cy="193"
       sodipodi:rx="28"
       sodipodi:ry="28"
       d="m 80,193 a 28,28 0 1 1 -56,0 28,28 0 1 1 56,0 z"
       transform="matrix(0.89285714,0,0,0.89285714,508.57143,52.678572)" />
    <path
       sodipodi:type="arc"
       style="fill:#0000ff;fill-opacity:1;fill-rule:nonzero;stroke:none;display:inline"
       id="path3033-0-4-4"
       sodipodi:cx="52"
       sodipodi:cy="193"
       sodipodi:rx="28"
       sodipodi:ry="28"
       d="m 80,193 a 28,28 0 1 1 -56,0 28,28 0 1 1 56,0 z"
       transform="matrix(0.89285714,0,0,0.89285714,-1.4285714,537.67857)" />
    <path
       sodipodi:type="arc"
       style="fill:#0000ff;fill-opacity:1;fill-rule:nonzero;stroke:none;display:inline"
       id="path3033-0-4-8-8"
       sodipodi:cx="52"
       sodipodi:cy="193"
       sodipodi:rx="28"
       sodipodi:ry="28"
       d="m 80,193 a 28,28 0 1 1 -56,0 28,28 0 1 1 56,0 z"
       transform="matrix(0.89285714,0,0,0.89285714,508.57143,537.67857)" />
  </g>
</svg>
