<?xml version="1.0" encoding="UTF-8" standalone="no"?>
<!-- Created with Inkscape (http://www.inkscape.org/) -->

<svg
   xmlns:dc="http://purl.org/dc/elements/1.1/"
   xmlns:cc="http://creativecommons.org/ns#"
   xmlns:rdf="http://www.w3.org/1999/02/22-rdf-syntax-ns#"
   xmlns:svg="http://www.w3.org/2000/svg"
   xmlns="http://www.w3.org/2000/svg"
   xmlns:sodipodi="http://sodipodi.sourceforge.net/DTD/sodipodi-0.dtd"
   xmlns:inkscape="http://www.inkscape.org/namespaces/inkscape"
   width="1480"
   height="1480"
   id="svg2"
   version="1.1"
   inkscape:version="0.48.5 r10040"
   sodipodi:docname="map04.svg"
   inkscape:export-filename="C:\Users\Nick\Desktop\HTML5 Games\Finish Line\img\map04.png"
   inkscape:export-xdpi="90"
   inkscape:export-ydpi="90">
  <defs
     id="defs4" />
  <sodipodi:namedview
     id="base"
     pagecolor="#ffffff"
     bordercolor="#666666"
     borderopacity="1.0"
     inkscape:pageopacity="0.0"
     inkscape:pageshadow="2"
     inkscape:zoom="0.5"
     inkscape:cx="711.86882"
     inkscape:cy="730.34444"
     inkscape:document-units="px"
     inkscape:current-layer="layer1"
     showgrid="false"
     inkscape:window-width="1920"
     inkscape:window-height="1018"
     inkscape:window-x="-8"
     inkscape:window-y="-8"
     inkscape:window-maximized="1" />
  <metadata
     id="metadata7">
    <rdf:RDF>
      <cc:Work
         rdf:about="">
        <dc:format>image/svg+xml</dc:format>
        <dc:type
           rdf:resource="http://purl.org/dc/dcmitype/StillImage" />
        <dc:title />
      </cc:Work>
    </rdf:RDF>
  </metadata>
  <g
     inkscape:label="Layer 1"
     inkscape:groupmode="layer"
     id="layer1"
     transform="translate(0,427.63782)"
     style="display:inline">
    <rect
       style="fill:#784421;stroke:none"
       id="rect2985"
       width="1480"
       height="1480"
       x="0"
       y="-427.63782" />
    <path
       style="fill:#666666;fill-opacity:1;fill-rule:nonzero;stroke:#000000"
       d="m 40,-387.63782 0,240 0,72 0,168 0,66 0,134 240,0 70,0 170,0 0,240 0,240 0,40 -40,0 0,-280 0,-22 0,-178 -240,0 -66,0 -134,0 0,130 0,70 0,192 0,48 0,240.00002 200,0 0,-240.00002 0,-48 0,-192 40,0 0,314 0,166.00002 298,0 142,0 0,-258.00002 0,-222 240,0 0,-240 240,0 40,0 0,40 -240,0 0,200 0,40 -240,0 0,200 0,240.00002 200,0 240,0 240,0 0,-200.00002 0,-240 -200,0 0,240 -40,0 -240,0 0,-40 68,0 172,0 0,-240 96,0 144,0 0,-268 0,-172 -240,0 -240,0 -410,0 -30,0 -170,0 -70,0 -40,0 0,-168 0,-72 0,-40 40,0 0,240 200,0 240,0 0,-200 0,-40 322,0 198,0 0,40 -40,0 -240,0 -72,0 -128,0 0,200 128,0 72,0 240,0 240,0 0,-200 0,-240 -142,0 -256,0 -322,0 -200,0 0,240 -40,0 0,-62 0,-178 -240,0 -200,0 z"
       id="rect3755"
       inkscape:connector-curvature="0" />
    <rect
       style="fill:#ffffff;stroke:none;display:inline"
       id="rect4346-36"
       width="40"
       height="200"
       x="920"
       y="-147.63782" />
    <rect
       style="fill:#000000;stroke:none"
       id="rect4346"
       width="20"
       height="20"
       x="940"
       y="32.362179" />
    <rect
       style="fill:#000000;stroke:none;display:inline"
       id="rect4346-9"
       width="20"
       height="20"
       x="920"
       y="12.362179" />
    <rect
       style="fill:#000000;stroke:none;display:inline"
       id="rect4346-1"
       width="20"
       height="20"
       x="940"
       y="-7.6378212" />
    <rect
       style="fill:#000000;stroke:none;display:inline"
       id="rect4346-3"
       width="20"
       height="20"
       x="940"
       y="-47.637821" />
    <rect
       style="fill:#000000;stroke:none;display:inline"
       id="rect4346-5"
       width="20"
       height="20"
       x="920"
       y="-27.637821" />
    <rect
       style="fill:#000000;stroke:none;display:inline"
       id="rect4346-98"
       width="20"
       height="20"
       x="920"
       y="-67.637817" />
    <rect
       style="fill:#000000;stroke:none;display:inline"
       id="rect4346-4"
       width="20"
       height="20"
       x="940"
       y="-87.637817" />
    <rect
       style="fill:#000000;stroke:none;display:inline"
       id="rect4346-0"
       width="20"
       height="20"
       x="940"
       y="-127.63782" />
    <rect
       style="fill:#000000;stroke:none;display:inline"
       id="rect4346-7"
       width="20"
       height="20"
       x="920"
       y="-107.63782" />
    <rect
       style="fill:#000000;stroke:none;display:inline"
       id="rect4346-6"
       width="20"
       height="20"
       x="920"
       y="-147.63782" />
    <path
       style="fill:none;stroke:#000000;stroke-width:1px;stroke-linecap:butt;stroke-linejoin:miter;stroke-opacity:1"
       d="m 917.75,-147.63782 48.625,0"
       id="path3059"
       inkscape:connector-curvature="0" />
    <path
       style="fill:none;stroke:#000000;stroke-width:1px;stroke-linecap:butt;stroke-linejoin:miter;stroke-opacity:1"
       d="m 916.76394,52.36218 46.66905,0"
       id="path3061"
       inkscape:connector-curvature="0" />
  </g>
  <g
     inkscape:groupmode="layer"
     id="layer2"
     inkscape:label="Collision"
     style="display:none"
     sodipodi:insensitive="true">
    <rect
       style="fill:none;stroke:#0000ff;stroke-width:0.99999994"
       id="rect3755-7-3-4-4"
       width="39"
       height="199"
       x="960.5"
       y="280.5" />
    <path
       sodipodi:type="arc"
       style="fill:none;stroke:#0000ff;stroke-width:1.42372882;stroke-linejoin:miter;stroke-miterlimit:4;stroke-opacity:1;stroke-dasharray:none;stroke-dashoffset:0"
       id="path4151"
       sodipodi:cx="1336"
       sodipodi:cy="1110"
       sodipodi:rx="42"
       sodipodi:ry="42"
       d="m 1378,1110 a 42,42 0 1 1 -84,0 42,42 0 1 1 84,0 z"
       transform="matrix(0.70238095,0,0,0.70238095,401.61905,320.35715)" />
    <rect
       style="fill:none;stroke:#ff0000;stroke-width:1;stroke-linejoin:miter;stroke-miterlimit:4;stroke-opacity:1;stroke-dasharray:none;stroke-dashoffset:0"
       id="rect4155"
       width="99"
       height="1479"
       x="-59.5"
       y="0.4999961" />
    <rect
       style="fill:none;stroke:#ff0000;stroke-width:1;stroke-linejoin:miter;stroke-miterlimit:4;stroke-opacity:1;stroke-dasharray:none;stroke-dashoffset:0"
       id="rect4155-6"
       width="99"
       height="1479"
       x="1440.5"
       y="0.5" />
    <rect
       style="fill:none;stroke:#ff0000;stroke-width:1;stroke-linejoin:miter;stroke-miterlimit:4;stroke-opacity:1;stroke-dasharray:none;stroke-dashoffset:0"
       id="rect4175"
       width="1479"
       height="99"
       x="0.5"
       y="1440.5" />
    <rect
       style="fill:none;stroke:#ff0000;stroke-width:1;stroke-linejoin:miter;stroke-miterlimit:4;stroke-opacity:1;stroke-dasharray:none;stroke-dashoffset:0"
       id="rect4175-0"
       width="1479"
       height="99"
       x="0.5"
       y="-59.5" />
    <rect
       style="fill:none;stroke:#ff0000;stroke-width:0.99999994;stroke-linejoin:miter;stroke-miterlimit:4;stroke-opacity:1;stroke-dasharray:none;stroke-dashoffset:0"
       id="rect4195"
       width="39"
       height="519"
       x="240.5"
       y="960.5" />
    <rect
       style="fill:none;stroke:#ff0000;stroke-width:0.99999994;stroke-linejoin:miter;stroke-miterlimit:4;stroke-opacity:1;stroke-dasharray:none;stroke-dashoffset:0"
       id="rect4195-6"
       width="39"
       height="519"
       x="720.5"
       y="960.5" />
    <rect
       style="fill:none;stroke:#ff0000;stroke-width:1;stroke-linejoin:miter;stroke-miterlimit:4;stroke-opacity:1;stroke-dasharray:none;stroke-dashoffset:0"
       id="rect4215"
       width="519"
       height="39"
       x="0.5"
       y="720.5" />
    <rect
       style="fill:none;stroke:#ff0000;stroke-width:0.99999994;stroke-linejoin:miter;stroke-miterlimit:4;stroke-opacity:1;stroke-dasharray:none;stroke-dashoffset:0"
       id="rect4195-61"
       width="39"
       height="519"
       x="480.5"
       y="720.5" />
    <rect
       style="fill:none;stroke:#ff0000;stroke-width:1;stroke-linejoin:miter;stroke-miterlimit:4;stroke-opacity:1;stroke-dasharray:none;stroke-dashoffset:0"
       id="rect4235"
       width="279"
       height="39"
       x="720.5"
       y="960.5" />
    <rect
       style="fill:none;stroke:#ff0000;stroke-width:1;stroke-linejoin:miter;stroke-miterlimit:4;stroke-opacity:1;stroke-dasharray:none;stroke-dashoffset:0"
       id="rect4235-8"
       width="279"
       height="39"
       x="960.5"
       y="720.5" />
    <rect
       style="fill:none;stroke:#ff0000;stroke-width:1;stroke-linejoin:miter;stroke-miterlimit:4;stroke-opacity:1;stroke-dasharray:none;stroke-dashoffset:0"
       id="rect4235-4"
       width="279"
       height="39"
       x="1200.5"
       y="960.5" />
    <rect
       style="fill:none;stroke:#ff0000;stroke-width:1;stroke-linejoin:miter;stroke-miterlimit:4;stroke-opacity:1;stroke-dasharray:none;stroke-dashoffset:0"
       id="rect4235-9"
       width="279"
       height="39"
       x="960.5"
       y="1200.5" />
    <rect
       style="fill:none;stroke:#ff0000;stroke-width:1;stroke-linejoin:miter;stroke-miterlimit:4;stroke-opacity:1;stroke-dasharray:none;stroke-dashoffset:0"
       id="rect4269"
       width="39"
       height="279"
       x="1200.5"
       y="960.49982" />
    <rect
       style="fill:none;stroke:#ff0000;stroke-width:1;stroke-linejoin:miter;stroke-miterlimit:4;stroke-opacity:1;stroke-dasharray:none;stroke-dashoffset:0"
       id="rect4269-6"
       width="39"
       height="279"
       x="960.5"
       y="720.49982" />
    <rect
       style="fill:none;stroke:#ff0000;stroke-width:1;stroke-linejoin:miter;stroke-miterlimit:4;stroke-opacity:1;stroke-dasharray:none;stroke-dashoffset:0"
       id="rect4269-3"
       width="39"
       height="279"
       x="720.5"
       y="240.49982" />
    <rect
       style="fill:none;stroke:#ff0000;stroke-width:1;stroke-linejoin:miter;stroke-miterlimit:4;stroke-opacity:1;stroke-dasharray:none;stroke-dashoffset:0"
       id="rect4269-3-7"
       width="39"
       height="279"
       x="240.5"
       y="240.4998" />
    <rect
       style="fill:none;stroke:#ff0000;stroke-width:1;stroke-linejoin:miter;stroke-miterlimit:4;stroke-opacity:1;stroke-dasharray:none;stroke-dashoffset:0"
       id="rect4269-3-8"
       width="39"
       height="279"
       x="480.5"
       y="0.49980164" />
    <rect
       style="fill:none;stroke:#ff0000;stroke-width:1;stroke-linejoin:miter;stroke-miterlimit:4;stroke-opacity:1;stroke-dasharray:none;stroke-dashoffset:0"
       id="rect4215-8"
       width="519"
       height="39"
       x="720.5"
       y="240.5" />
    <rect
       style="fill:none;stroke:#ff0000;stroke-width:1;stroke-linejoin:miter;stroke-miterlimit:4;stroke-opacity:1;stroke-dasharray:none;stroke-dashoffset:0"
       id="rect4215-2"
       width="1239"
       height="39"
       x="240.49998"
       y="480.5" />
    <rect
       style="fill:none;stroke:#00ff00;stroke-width:0.99999994"
       id="rect4429"
       width="199"
       height="199"
       x="760.5"
       y="280.5" />
  </g>
</svg>
