<?xml version="1.0" encoding="UTF-8" standalone="no"?>
<!-- Created with Inkscape (http://www.inkscape.org/) -->

<svg
   xmlns:dc="http://purl.org/dc/elements/1.1/"
   xmlns:cc="http://creativecommons.org/ns#"
   xmlns:rdf="http://www.w3.org/1999/02/22-rdf-syntax-ns#"
   xmlns:svg="http://www.w3.org/2000/svg"
   xmlns="http://www.w3.org/2000/svg"
   xmlns:sodipodi="http://sodipodi.sourceforge.net/DTD/sodipodi-0.dtd"
   xmlns:inkscape="http://www.inkscape.org/namespaces/inkscape"
   width="1020"
   height="1640"
   id="svg2"
   version="1.1"
   inkscape:version="0.48.5 r10040"
   sodipodi:docname="map05.svg"
   inkscape:export-filename="C:\Users\Nick\Desktop\HTML5 Games\Finish Line\img\map05.png"
   inkscape:export-xdpi="90"
   inkscape:export-ydpi="90">
  <defs
     id="defs4" />
  <sodipodi:namedview
     id="base"
     pagecolor="#ffffff"
     bordercolor="#666666"
     borderopacity="1.0"
     inkscape:pageopacity="0.0"
     inkscape:pageshadow="2"
     inkscape:zoom="0.5"
     inkscape:cx="667.22615"
     inkscape:cy="827.84689"
     inkscape:document-units="px"
     inkscape:current-layer="layer2"
     showgrid="false"
     inkscape:window-width="1920"
     inkscape:window-height="1018"
     inkscape:window-x="-8"
     inkscape:window-y="-8"
     inkscape:window-maximized="1"
     showguides="true"
     inkscape:guide-bbox="true" />
  <metadata
     id="metadata7">
    <rdf:RDF>
      <cc:Work
         rdf:about="">
        <dc:format>image/svg+xml</dc:format>
        <dc:type
           rdf:resource="http://purl.org/dc/dcmitype/StillImage" />
        <dc:title />
      </cc:Work>
    </rdf:RDF>
  </metadata>
  <g
     inkscape:label="Layer 1"
     inkscape:groupmode="layer"
     id="layer1"
     transform="translate(0,587.63782)"
     style="display:inline"
     sodipodi:insensitive="true">
    <rect
       style="fill:#784421;fill-opacity:1;fill-rule:nonzero;stroke:none"
       id="rect3146"
       width="1020"
       height="1640"
       x="0"
       y="-587.63782" />
    <path
       style="fill:#666666;fill-opacity:1;fill-rule:nonzero;stroke:#000000;stroke-width:1;stroke-linejoin:miter;stroke-miterlimit:4;stroke-opacity:1;stroke-dasharray:none;stroke-dashoffset:0"
       d="m 220.00018,-567.63802 c -110.18081,0 -199.499998,89.31919 -199.499998,199.5 0,0.16692 -4.1e-4,0.33318 0,0.5 l 0,380.500004 0,18.5 0,161.499996 0,19 0,180 198.999998,0 0,-180 0,-19 0,-160.999996 0.5,0 c -0.0389,-117.166 -0.008,-308.984844 0,-362.156254 l 0.0937,0 c 4.08653,-18.9034 18.97162,-33.7885 37.875,-37.875 l 0,-0.0312 c 6.51185,-0.0115 14.36327,-0.11455 21.78125,-0.21875 7.56204,0.10644 15.6243,0.20695 22.28125,0.21875 l 0,0.0312 c 18.90338,4.0865 33.78847,18.9716 37.875,37.875 l 0.0937,0 c 0.008,53.17141 0.0389,144.99025 0,262.156254 l 0.25,0 0,39.75 c -4.1e-4,0.16682 0,0.33308 0,0.5 0,110.1808 89.31919,199.499996 199.5,199.499996 0.16692,0 0.33318,4e-4 0.5,0 l 60,0 0,0.5 c 117.166,-0.039 108.98482,-0.01 162.15625,0 l 0,0.094 c 18.9034,4.0864 33.7885,18.9715 37.875,37.875 l 0.0312,0 c 0.012,6.6568 0.11238,14.7192 0.21875,22.2812 -0.10414,7.418 -0.20701,15.2695 -0.21875,21.7812 l -0.0312,0 c -4.0865,18.9035 -18.9716,33.7886 -37.875,37.875 l 0,0.094 c -53.17143,0.01 -44.99025,0.039 -162.15625,0 l 0,0.5 -60,0 c -0.16682,-4e-4 -0.33308,0 -0.5,0 -110.18081,0 -199.5,89.3192 -199.5,199.5 0,0.1669 -4.1e-4,0.3332 0,0.5 l 0,39.75 -0.25,0 c 0.0389,117.166 0.008,208.9849 0,262.1562 l -0.0937,0 c -4.08653,18.9036 -18.97162,33.7887 -37.875,37.875 l 0,0.031 c -6.51186,0.012 -14.36326,0.1147 -21.78125,0.2187 -7.56204,-0.1064 -15.6243,-0.2069 -22.28125,-0.2187 l 0,-0.031 c -18.90338,-4.0864 -33.78847,-18.9715 -37.875,-37.875 l -0.0937,0 c -0.008,-53.1718 -0.0389,-244.9906 0,-362.1566 l -199.499998,0.5 0,399 c -4.1e-4,0.1668 0,0.3331 0,0.5 0,110.1808 89.319188,199.50002 199.499998,199.50002 0.16692,0 0.33318,4e-4 0.5,0 l 79,0 40,0 c 0.16682,4e-4 0.33308,0 0.5,0 110.18081,0 199.5,-89.31922 199.5,-199.50002 0,-0.1669 4.1e-4,-0.3332 0,-0.5 l 0,-282.375 c 0.0924,-6.6991 0.17718,-13.5838 0.1875,-19.4062 l 0.0312,0 c 4.0865,-18.9035 18.9716,-33.7886 37.875,-37.875 l 0,-0.094 c 53.17141,-0.01 -55.00975,-0.039 62.15625,0 l 0,-0.5 160,0 c 0.1668,4e-4 0.3331,0 0.5,0 110.1808,0 199.5,-89.3192 199.5,-199.5 0,-0.1669 4e-4,-0.3332 0,-0.5 l 0,-79 0,-40 c 4e-4,-0.1668 0,-0.3331 0,-0.5 0,-110.180796 -89.3192,-199.499996 -199.5,-199.499996 -0.1669,0 -0.3332,-4.1e-4 -0.5,0 l -160,0 0,-0.5 c -117.166,0.0389 -8.98484,0.008 -62.15625,0 l 0,-0.0937 c -18.9034,-4.08653 -33.7885,-18.97162 -37.875,-37.875 l -0.0312,0 c -0.0103,-5.82256 -0.0951,-12.70711 -0.1875,-19.40625 l 0,-282.374854 c 4.1e-4,-0.16682 0,-0.33308 0,-0.5 0,-110.18081 -89.31919,-199.5 -199.5,-199.5 -0.16692,0 -0.33318,-4.1e-4 -0.5,0 l -40,0 -79,0 c -0.16682,-4.1e-4 -0.33308,0 -0.5,0 z"
       id="rect2985"
       inkscape:connector-curvature="0" />
    <path
       inkscape:connector-curvature="0"
       style="fill:#666666;fill-opacity:1;fill-rule:nonzero;stroke:#000000;stroke-width:1;stroke-linejoin:miter;stroke-miterlimit:4;stroke-opacity:1;stroke-dasharray:none;stroke-dashoffset:0"
       d="m -580,452.875 c -110.18081,0 -199.5,89.31919 -199.5,199.5 0,0.16692 -4.1e-4,0.33318 0,0.5 l 0,399 199.5,0.5 c -0.0389,-117.16598 -0.008,-308.98484 0,-362.15625 l 0.0937,0 c 4.08653,-18.9034 18.97162,-33.7885 37.875,-37.875 l 0,-0.0312 c 53.26467,-0.0944 244.44516,-0.43755 361.5313,-0.43755 l 0,-199 -399,0 c -0.16682,-4.1e-4 -0.33308,0 -0.5,0 z"
       id="rect2985-7" />
    <g
       id="g3296"
       transform="translate(20.000182,-20.000196)">
      <rect
         y="212.86218"
         x="0.5"
         height="39"
         width="199"
         id="rect3202-14-1"
         style="fill:#ffffff;fill-opacity:1;fill-rule:nonzero;stroke:#000000;stroke-width:0.99999994" />
      <rect
         y="232.36218"
         x="0"
         height="20"
         width="20"
         id="rect3202"
         style="fill:#000000;fill-opacity:1;fill-rule:nonzero;stroke:none" />
      <rect
         y="212.36218"
         x="20"
         height="20"
         width="20"
         id="rect3202-1"
         style="fill:#000000;fill-opacity:1;fill-rule:nonzero;stroke:none" />
      <rect
         y="232.36218"
         x="40"
         height="20"
         width="20"
         id="rect3202-15"
         style="fill:#000000;fill-opacity:1;fill-rule:nonzero;stroke:none" />
      <rect
         y="212.36218"
         x="60"
         height="20"
         width="20"
         id="rect3202-2"
         style="fill:#000000;fill-opacity:1;fill-rule:nonzero;stroke:none" />
      <rect
         y="232.36218"
         x="80"
         height="20"
         width="20"
         id="rect3202-7"
         style="fill:#000000;fill-opacity:1;fill-rule:nonzero;stroke:none" />
      <rect
         y="212.36218"
         x="100"
         height="20"
         width="20"
         id="rect3202-6"
         style="fill:#000000;fill-opacity:1;fill-rule:nonzero;stroke:none" />
      <rect
         y="232.36218"
         x="120"
         height="20"
         width="20"
         id="rect3202-14"
         style="fill:#000000;fill-opacity:1;fill-rule:nonzero;stroke:none" />
      <rect
         y="212.36218"
         x="140"
         height="20"
         width="20"
         id="rect3202-14-2"
         style="fill:#000000;fill-opacity:1;fill-rule:nonzero;stroke:none" />
      <rect
         y="232.36218"
         x="160"
         height="20"
         width="20"
         id="rect3202-14-3"
         style="fill:#000000;fill-opacity:1;fill-rule:nonzero;stroke:none" />
      <rect
         y="212.36218"
         x="180"
         height="20"
         width="20"
         id="rect3202-14-22"
         style="fill:#000000;fill-opacity:1;fill-rule:nonzero;stroke:none" />
    </g>
  </g>
  <g
     inkscape:groupmode="layer"
     id="layer2"
     inkscape:label="Collision"
     style="display:inline">
    <rect
       style="fill:none;stroke:#ff0000;stroke-width:1.00000012;stroke-linejoin:miter;stroke-miterlimit:4;stroke-opacity:1;stroke-dasharray:none;stroke-dashoffset:0"
       id="rect3330"
       width="99"
       height="1639"
       x="-79.5"
       y="0.49976262" />
    <rect
       style="fill:none;stroke:#ff0000;stroke-width:1.00000012;stroke-linejoin:miter;stroke-miterlimit:4;stroke-opacity:1;stroke-dasharray:none;stroke-dashoffset:0"
       id="rect3330-8"
       width="99"
       height="1639"
       x="1000.5"
       y="0.49980006" />
    <rect
       style="fill:none;stroke:#ff0000;stroke-width:1;stroke-linejoin:miter;stroke-miterlimit:4;stroke-opacity:1;stroke-dasharray:none;stroke-dashoffset:0"
       id="rect3350"
       width="1019"
       height="99.000008"
       x="0.5"
       y="1620.5001" />
    <rect
       style="fill:none;stroke:#ff0000;stroke-width:1;stroke-linejoin:miter;stroke-miterlimit:4;stroke-opacity:1;stroke-dasharray:none;stroke-dashoffset:0"
       id="rect3350-5"
       width="1019"
       height="99.000008"
       x="0.5"
       y="-79.499878" />
    <rect
       style="fill:none;stroke:#00ff00;stroke-width:1;stroke-linejoin:miter;stroke-miterlimit:4;stroke-opacity:1;stroke-dasharray:none;stroke-dashoffset:0;display:inline"
       id="rect5831-0"
       width="99"
       height="49"
       x="150.5"
       y="-29.5" />
    <rect
       style="fill:none;stroke:#00ff00;stroke-width:1;stroke-linejoin:miter;stroke-miterlimit:4;stroke-opacity:1;stroke-dasharray:none;stroke-dashoffset:0;display:inline"
       id="rect5831-0-2"
       width="99"
       height="49"
       x="-229.5"
       y="-29.499973" />
    <rect
       style="fill:none;stroke:#00ff00;stroke-width:1;stroke-linejoin:miter;stroke-miterlimit:4;stroke-opacity:1;stroke-dasharray:none;stroke-dashoffset:0;display:inline"
       id="rect5831-0-7-7"
       width="99"
       height="49"
       x="-264.71198"
       y="-79.060028"
       transform="matrix(0.96592583,-0.25881905,0.25881905,0.96592583,0,0)" />
    <rect
       style="fill:none;stroke:#00ff00;stroke-width:1;stroke-linejoin:miter;stroke-miterlimit:4;stroke-opacity:1;stroke-dasharray:none;stroke-dashoffset:0;display:inline"
       id="rect5831-0-6-9"
       width="99"
       height="49"
       x="-283.16663"
       y="-139.77754"
       transform="matrix(0.8660254,-0.5,0.5,0.8660254,0,0)" />
    <rect
       style="fill:none;stroke:#00ff00;stroke-width:1;stroke-linejoin:miter;stroke-miterlimit:4;stroke-opacity:1;stroke-dasharray:none;stroke-dashoffset:0;display:inline"
       id="rect5831-0-1-5"
       width="99"
       height="49"
       x="-304.76547"
       y="-207.64062"
       transform="matrix(0.70710678,-0.70710678,0.70710678,0.70710678,0,0)" />
    <rect
       style="fill:none;stroke:#00ff00;stroke-width:1;stroke-linejoin:miter;stroke-miterlimit:4;stroke-opacity:1;stroke-dasharray:none;stroke-dashoffset:0;display:inline"
       id="rect5831-0-8-4"
       width="99"
       height="49"
       x="-329.09293"
       y="-278.76913"
       transform="matrix(0.5,-0.8660254,0.8660254,0.5,0,0)" />
    <rect
       style="fill:none;stroke:#00ff00;stroke-width:1;stroke-linejoin:miter;stroke-miterlimit:4;stroke-opacity:1;stroke-dasharray:none;stroke-dashoffset:0;display:inline"
       id="rect5831-0-9-3"
       width="99"
       height="49"
       x="-296.53452"
       y="-347.57111"
       transform="matrix(0.25881905,-0.96592583,0.96592583,0.25881905,0,0)" />
    <text
       xml:space="preserve"
       style="font-size:20px;font-style:normal;font-variant:normal;font-weight:normal;font-stretch:normal;line-height:0%;letter-spacing:0px;word-spacing:0px;fill:#000000;fill-opacity:1;stroke:none;font-family:Arial;-inkscape-font-specification:Arial"
       x="-407.16086"
       y="321.53665"
       id="text3456"
       sodipodi:linespacing="0%"><tspan
         sodipodi:role="line"
         id="tspan3458"
         x="-407.16086"
         y="321.53665">x:-42, y:-8, a:15</tspan></text>
    <text
       xml:space="preserve"
       style="font-size:20px;font-style:normal;font-variant:normal;font-weight:normal;font-stretch:normal;line-height:0%;letter-spacing:0px;word-spacing:0px;fill:#000000;fill-opacity:1;stroke:none;font-family:Arial;-inkscape-font-specification:Arial"
       x="-407.16086"
       y="341.53668"
       id="text3456-1"
       sodipodi:linespacing="0%"><tspan
         sodipodi:role="line"
         id="tspan3458-2"
         x="-407.16086"
         y="341.53668">x:-80, y:-22, a:30</tspan></text>
    <text
       xml:space="preserve"
       style="font-size:20px;font-style:normal;font-variant:normal;font-weight:normal;font-stretch:normal;line-height:0%;letter-spacing:0px;word-spacing:0px;fill:#000000;fill-opacity:1;stroke:none;font-family:Arial;-inkscape-font-specification:Arial"
       x="-407.16086"
       y="361.53668"
       id="text3456-3"
       sodipodi:linespacing="0%"><tspan
         sodipodi:role="line"
         id="tspan3458-3"
         x="-407.16086"
         y="361.53668">x:-130, y:-56, a:45</tspan></text>
    <text
       xml:space="preserve"
       style="font-size:20px;font-style:normal;font-variant:normal;font-weight:normal;font-stretch:normal;line-height:0%;letter-spacing:0px;word-spacing:0px;fill:#000000;fill-opacity:1;stroke:none;font-family:Arial;-inkscape-font-specification:Arial"
       x="-407.16086"
       y="381.53668"
       id="text3456-4"
       sodipodi:linespacing="0%"><tspan
         sodipodi:role="line"
         id="tspan3458-1"
         x="-407.16086"
         y="381.53668">x:-180, y:-120, a:60</tspan></text>
    <text
       xml:space="preserve"
       style="font-size:20px;font-style:normal;font-variant:normal;font-weight:normal;font-stretch:normal;line-height:0%;letter-spacing:0px;word-spacing:0px;fill:#000000;fill-opacity:1;stroke:none;font-family:Arial;-inkscape-font-specification:Arial"
       x="-407.16086"
       y="401.53668"
       id="text3456-13"
       sodipodi:linespacing="0%"><tspan
         sodipodi:role="line"
         id="tspan3458-8"
         x="-407.16086"
         y="401.53668">x:-196, y:-160, a:75</tspan></text>
    <rect
       style="fill:none;stroke:#00ff00;stroke-width:1;stroke-linejoin:miter;stroke-miterlimit:4;stroke-opacity:1;stroke-dasharray:none;stroke-dashoffset:0;display:inline"
       id="rect5831-0-2-7"
       width="99"
       height="49"
       x="-409.5"
       y="-29.499962"
       transform="scale(-1,1)" />
    <rect
       style="fill:none;stroke:#00ff00;stroke-width:1;stroke-linejoin:miter;stroke-miterlimit:4;stroke-opacity:1;stroke-dasharray:none;stroke-dashoffset:0;display:inline"
       id="rect5831-0-2-3"
       width="99"
       height="49"
       x="470.5"
       y="-809.5"
       transform="scale(1,-1)" />
    <rect
       style="fill:none;stroke:#00ff00;stroke-width:1;stroke-linejoin:miter;stroke-miterlimit:4;stroke-opacity:1;stroke-dasharray:none;stroke-dashoffset:0;display:inline"
       id="rect5831-0-2-0"
       width="99"
       height="49"
       x="-869.5"
       y="510.5"
       transform="scale(-1,1)" />
    <rect
       style="fill:none;stroke:#00ff00;stroke-width:1;stroke-linejoin:miter;stroke-miterlimit:4;stroke-opacity:1;stroke-dasharray:none;stroke-dashoffset:0;display:inline"
       id="rect5831-0-2-4"
       width="99"
       height="49"
       x="-869.5"
       y="-1128.4998"
       transform="scale(-1,-1)" />
    <rect
       style="fill:none;stroke:#00ff00;stroke-width:1;stroke-linejoin:miter;stroke-miterlimit:4;stroke-opacity:1;stroke-dasharray:none;stroke-dashoffset:0;display:inline"
       id="rect5831-0-2-00"
       width="99"
       height="49"
       x="470.49997"
       y="830.5" />
    <rect
       style="fill:none;stroke:#00ff00;stroke-width:1;stroke-linejoin:miter;stroke-miterlimit:4;stroke-opacity:1;stroke-dasharray:none;stroke-dashoffset:0;display:inline"
       id="rect5831-0-2-34"
       width="99"
       height="49"
       x="-408.5"
       y="-1669.5001"
       transform="scale(-1,-1)" />
    <rect
       style="fill:none;stroke:#00ff00;stroke-width:1;stroke-linejoin:miter;stroke-miterlimit:4;stroke-opacity:1;stroke-dasharray:none;stroke-dashoffset:0;display:inline"
       id="rect5831-0-2-1"
       width="99"
       height="49"
       x="150.49997"
       y="-1669.4999"
       transform="scale(1,-1)" />
    <path
       sodipodi:type="arc"
       style="fill:none;stroke:#ff0000;stroke-width:0.62921345;stroke-linejoin:miter;stroke-miterlimit:4;stroke-opacity:1;stroke-dasharray:none;stroke-dashoffset:0"
       id="path3660"
       sodipodi:cx="292"
       sodipodi:cy="1294"
       sodipodi:rx="28"
       sodipodi:ry="28"
       d="m 320,1294 a 28,28 0 1 1 -56,0 28,28 0 1 1 56,0 z"
       transform="matrix(1.5892857,0,0,1.5892857,-169.07143,-681.53576)" />
    <path
       sodipodi:type="arc"
       style="fill:none;stroke:#ff0000;stroke-width:0.62921345;stroke-linejoin:miter;stroke-miterlimit:4;stroke-opacity:1;stroke-dasharray:none;stroke-dashoffset:0"
       id="path3660-7"
       sodipodi:cx="292"
       sodipodi:cy="1294"
       sodipodi:rx="28"
       sodipodi:ry="28"
       d="m 320,1294 a 28,28 0 1 1 -56,0 28,28 0 1 1 56,0 z"
       transform="matrix(1.5892857,0,0,1.5892857,-199.07143,-681.53576)" />
    <path
       sodipodi:type="arc"
       style="fill:none;stroke:#ff0000;stroke-width:0.62921345;stroke-linejoin:miter;stroke-miterlimit:4;stroke-opacity:1;stroke-dasharray:none;stroke-dashoffset:0"
       id="path3660-8"
       sodipodi:cx="292"
       sodipodi:cy="1294"
       sodipodi:rx="28"
       sodipodi:ry="28"
       d="m 320,1294 a 28,28 0 1 1 -56,0 28,28 0 1 1 56,0 z"
       transform="matrix(1.5892857,0,0,1.5892857,291.92858,-1221.5358)" />
    <path
       sodipodi:type="arc"
       style="fill:none;stroke:#ff0000;stroke-width:0.62921345;stroke-linejoin:miter;stroke-miterlimit:4;stroke-opacity:1;stroke-dasharray:none;stroke-dashoffset:0"
       id="path3660-8-8"
       sodipodi:cx="292"
       sodipodi:cy="1294"
       sodipodi:rx="28"
       sodipodi:ry="28"
       d="m 320,1294 a 28,28 0 1 1 -56,0 28,28 0 1 1 56,0 z"
       transform="matrix(1.5892857,0,0,1.5892857,291.92858,-1251.5358)" />
    <path
       sodipodi:type="arc"
       style="fill:none;stroke:#ff0000;stroke-width:0.62921345;stroke-linejoin:miter;stroke-miterlimit:4;stroke-opacity:1;stroke-dasharray:none;stroke-dashoffset:0"
       id="path3660-8-2"
       sodipodi:cx="292"
       sodipodi:cy="1294"
       sodipodi:rx="28"
       sodipodi:ry="28"
       d="m 320,1294 a 28,28 0 1 1 -56,0 28,28 0 1 1 56,0 z"
       transform="matrix(1.5892857,0,0,1.5892857,-169.07143,-1792.5357)" />
    <path
       sodipodi:type="arc"
       style="fill:none;stroke:#ff0000;stroke-width:0.62921345;stroke-linejoin:miter;stroke-miterlimit:4;stroke-opacity:1;stroke-dasharray:none;stroke-dashoffset:0"
       id="path3660-8-2-9"
       sodipodi:cx="292"
       sodipodi:cy="1294"
       sodipodi:rx="28"
       sodipodi:ry="28"
       d="m 320,1294 a 28,28 0 1 1 -56,0 28,28 0 1 1 56,0 z"
       transform="matrix(1.5892857,0,0,1.5892857,-199.07143,-1792.5357)" />
    <rect
       style="fill:none;stroke:#ff0000;stroke-width:1;stroke-linejoin:miter;stroke-miterlimit:4;stroke-opacity:1;stroke-dasharray:none;stroke-dashoffset:0"
       id="rect3730"
       width="299"
       height="39"
       x="0.5"
       y="980.5" />
    <rect
       style="fill:none;stroke:#ff0000;stroke-width:0.99999994;stroke-linejoin:miter;stroke-miterlimit:4;stroke-opacity:1;stroke-dasharray:none;stroke-dashoffset:0"
       id="rect3732"
       width="119"
       height="1109"
       x="220.5"
       y="265.5" />
    <rect
       style="fill:none;stroke:#ff0000;stroke-width:1;stroke-linejoin:miter;stroke-miterlimit:4;stroke-opacity:1;stroke-dasharray:none;stroke-dashoffset:0"
       id="rect3734"
       width="499"
       height="119"
       x="256.5"
       y="760.5" />
    <rect
       style="fill:none;stroke:#ff0000;stroke-width:1;stroke-linejoin:miter;stroke-miterlimit:4;stroke-opacity:1;stroke-dasharray:none;stroke-dashoffset:0"
       id="rect3736"
       width="34"
       height="79"
       x="264.5"
       y="1340.5" />
    <rect
       style="fill:none;stroke:#ff0000;stroke-width:1;stroke-linejoin:miter;stroke-miterlimit:4;stroke-opacity:1;stroke-dasharray:none;stroke-dashoffset:0"
       id="rect3736-1"
       width="34"
       height="79"
       x="264.5"
       y="219.50011" />
    <rect
       style="fill:none;stroke:#ff0000;stroke-width:1;stroke-linejoin:miter;stroke-miterlimit:4;stroke-opacity:1;stroke-dasharray:none;stroke-dashoffset:0"
       id="rect3736-3"
       width="33"
       height="79"
       x="803.5"
       y="-800.5"
       transform="matrix(0,1,-1,0,0,0)" />
    <path
       sodipodi:type="arc"
       style="fill:none;stroke:#ff0000;stroke-width:0.62921345;stroke-linejoin:miter;stroke-miterlimit:4;stroke-opacity:1;stroke-dasharray:none;stroke-dashoffset:0"
       id="path3660-8-5"
       sodipodi:cx="292"
       sodipodi:cy="1294"
       sodipodi:rx="28"
       sodipodi:ry="28"
       d="m 320,1294 a 28,28 0 1 1 -56,0 28,28 0 1 1 56,0 z"
       transform="matrix(1.5892857,0,0,1.5892857,120.92858,-932.5357)" />
    <path
       sodipodi:type="arc"
       style="fill:none;stroke:#ff0000;stroke-width:0.62921345;stroke-linejoin:miter;stroke-miterlimit:4;stroke-opacity:1;stroke-dasharray:none;stroke-dashoffset:0"
       id="path3660-8-5-9"
       sodipodi:cx="292"
       sodipodi:cy="1294"
       sodipodi:rx="28"
       sodipodi:ry="28"
       d="m 320,1294 a 28,28 0 1 1 -56,0 28,28 0 1 1 56,0 z"
       transform="matrix(1.5892857,0,0,1.5892857,120.92858,-1541.5357)" />
    <rect
       style="fill:none;stroke:#ff0000;stroke-width:1;stroke-linejoin:miter;stroke-miterlimit:4;stroke-opacity:1;stroke-dasharray:none;stroke-dashoffset:0"
       id="rect3799"
       width="199"
       height="499"
       x="540.5"
       y="15.5" />
    <rect
       style="fill:none;stroke:#ff0000;stroke-width:1;stroke-linejoin:miter;stroke-miterlimit:4;stroke-opacity:1;stroke-dasharray:none;stroke-dashoffset:0"
       id="rect3801"
       width="299"
       height="139"
       x="585.5"
       y="420.5" />
    <rect
       style="fill:none;stroke:#ff0000;stroke-width:1;stroke-linejoin:miter;stroke-miterlimit:4;stroke-opacity:1;stroke-dasharray:none;stroke-dashoffset:0"
       id="rect3801-8"
       width="299"
       height="139"
       x="585.5"
       y="1079.5" />
    <rect
       style="fill:none;stroke:#ff0000;stroke-width:1;stroke-linejoin:miter;stroke-miterlimit:4;stroke-opacity:1;stroke-dasharray:none;stroke-dashoffset:0"
       id="rect3821"
       width="199"
       height="499"
       x="540.5"
       y="1124.5" />
    <path
       sodipodi:type="arc"
       style="fill:none;stroke:#0000ff;stroke-width:1.06122458;stroke-linejoin:miter;stroke-miterlimit:4;stroke-opacity:1;stroke-dasharray:none;stroke-dashoffset:0"
       id="path3823"
       sodipodi:cx="110"
       sodipodi:cy="1144"
       sodipodi:rx="26"
       sodipodi:ry="26"
       d="m 136,1144 a 26,26 0 1 1 -52,0 26,26 0 1 1 52,0 z"
       transform="matrix(0.94230769,0,0,0.94230769,16.346154,37)" />
    <rect
       style="fill:none;stroke:#0000ff;stroke-width:1;stroke-linejoin:miter;stroke-miterlimit:4;stroke-opacity:1;stroke-dasharray:none;stroke-dashoffset:0"
       id="rect3825"
       width="199"
       height="39"
       x="20.5"
       y="740.5" />
    <rect
       style="fill:none;stroke:#0000ff;stroke-width:1;stroke-linejoin:miter;stroke-miterlimit:4;stroke-opacity:1;stroke-dasharray:none;stroke-dashoffset:0;display:inline"
       id="rect3833"
       width="199"
       height="199"
       x="20.5"
       y="780.5" />
  </g>
</svg>
